<svg width="103" height="48" viewBox="0 0 103 48" fill="none" xmlns="http://www.w3.org/2000/svg">
<rect width="48" height="48" rx="24" fill="#E6F2FE"/>
<g clip-path="url(#clip0_6899_728)">
<path d="M26.0348 18.5022C26.0348 18.5022 25.1157 19.8353 23.445 21.166C23.445 21.166 24.8767 19.0837 25.0467 17.753C25.0467 17.753 23.6495 17.206 23.0359 16.5924C23.0359 16.5924 24.1941 17.206 25.3522 16.4224C25.3522 16.4224 25.6258 15.6018 25.5247 14.4091C25.5247 14.4091 26.2048 15.2962 26.2739 16.2523C26.2739 16.2523 27.6045 15.7398 27.9791 14C27.9791 14 28.4893 15.7398 26.8875 17.2405C26.8875 17.2405 28.2502 17.6841 28.6938 19.5618C28.6938 19.6283 28.1147 18.2976 26.0348 18.5022Z" fill="#FFA81E"/>
<path fill-rule="evenodd" clip-rule="evenodd" d="M12.3632 23.8939C12.3632 26.3852 10.7934 28.024 7.96449 28.024H5.03204V19.9363C5.61113 19.8673 6.29373 19.8008 7.62443 19.8008C10.7269 19.7663 12.3632 21.267 12.3632 23.8939ZM10.4189 23.8939C10.4189 22.0852 9.56625 21.097 7.75996 21.097C7.48643 21.097 7.21536 21.097 6.94183 21.1315V26.7278H7.69096C9.12515 26.7278 10.4189 26.1463 10.4189 23.8939ZM29.5119 25.9072V19.7318C29.6499 19.6973 29.8889 19.6628 30.1599 19.6628C30.7736 19.6628 31.3871 19.8673 31.3871 20.7224V21.6416H33.3314V22.9747H31.3871V25.8061C31.3871 26.4198 31.7642 26.7278 32.2398 26.7278C32.7868 26.7278 33.1959 26.4198 33.297 26.3507C33.4005 26.4888 33.6715 26.8633 33.6715 27.1714C33.6715 27.2724 33.6395 27.4104 33.536 27.5114C33.4325 27.6149 32.9224 28.125 31.6952 28.125C29.8889 28.093 29.5119 27.0334 29.5119 25.9072ZM25.7613 21.4371L24.4676 25.1581L23.477 28.024H21.3971L20.4779 25.3626C18.5681 20.0053 16.4193 16.8659 12.7723 16.8659C10.7614 16.8659 9.36172 17.7185 8.23802 18.6746C8.20352 18.7091 8.16902 18.7091 8.13452 18.7091C8.06717 18.7091 8.03349 18.6746 8.03349 18.6056C8.03349 18.5711 8.03349 18.5366 8.10003 18.4701C9.19169 17.2749 10.8279 16.2178 13.2503 16.2178C16.1827 16.2178 19.8989 17.7875 22.0107 24.0664L22.5923 25.7372C22.5923 25.7372 23.0013 24.3375 23.2404 23.5193C23.5804 22.2577 24.295 21.5406 25.7613 21.4371ZM26.3084 21.5061C27.4321 21.7796 28.1836 22.4967 28.1836 23.5538V27.9895H27.3655C26.6829 27.9895 26.3084 27.6494 26.3084 26.9323V21.5061ZM18.7727 26.4198C18.7727 27.1023 18.8761 27.6149 19.0807 27.9205C18.9082 27.9895 18.6372 28.0906 18.1591 28.0906C17.2719 28.0906 17.1364 27.6149 17.0674 27.3759C16.8629 27.5804 16.3183 28.0906 15.0566 28.0906C14.0339 28.0906 12.9423 27.4769 12.9423 26.0772C12.9423 24.4755 14.5785 23.9284 16.6238 23.9284H16.9319V23.7929C16.9319 23.1103 16.3873 22.7678 15.5692 22.7678C14.682 22.7678 13.8639 23.2113 13.6938 23.3148C13.5558 23.1103 13.3858 22.8367 13.3858 22.5287C13.3858 21.9496 14.443 21.5061 15.8402 21.5061C17.7155 21.5061 18.7382 22.1541 18.7382 23.9284V26.4198H18.7727ZM16.8309 24.8846C15.8082 24.8846 14.751 25.1581 14.751 26.0107C14.751 26.5553 15.1256 26.9323 15.7737 26.9323C16.4538 26.9323 16.8309 26.5553 16.8974 26.4543C16.9664 26.3852 17.0009 26.2489 17.0009 26.0452V24.8846H16.8309ZM40.0835 26.4198C40.0835 27.1023 40.1845 27.6149 40.3891 27.9205C40.219 27.9895 39.9455 28.0906 39.4699 28.0906C38.5828 28.0906 38.4473 27.6149 38.3782 27.3759C38.1737 27.5804 37.6291 28.0906 36.3674 28.0906C35.3447 28.0906 34.2531 27.4769 34.2531 26.0772C34.2531 24.4755 35.8893 23.9284 37.9347 23.9284H38.2427V23.7929C38.2427 23.1103 37.6956 22.7678 36.8775 22.7678C35.9928 22.7678 35.1722 23.2113 35.0022 23.3148C34.8667 23.1103 34.6967 22.8367 34.6967 22.5287C34.6967 21.9496 35.7538 21.5061 37.151 21.5061C39.0263 21.5061 40.049 22.1541 40.049 23.9284V26.4198H40.0835ZM38.1071 24.8846C37.082 24.8846 36.0273 25.1581 36.0273 26.0107C36.0273 26.5553 36.4019 26.9323 37.05 26.9323C37.7302 26.9323 38.1071 26.5553 38.1737 26.4543C38.2427 26.3852 38.2772 26.2489 38.2772 26.0452V24.8846H38.1071ZM5.6481 31.469C5.7171 31.469 5.74913 31.469 5.78363 31.4345C5.81813 31.4345 5.85263 31.4025 5.88713 31.368L6.80629 30.2763C6.84079 30.2418 6.87529 30.2073 6.90979 30.1728C6.94429 30.1728 6.97879 30.1383 7.04533 30.1383H7.45439L6.36519 31.4345C6.3307 31.469 6.2962 31.5035 6.26169 31.538C6.22719 31.5725 6.1927 31.5725 6.1582 31.607C6.1927 31.607 6.22719 31.6415 6.26169 31.6735C6.2962 31.708 6.3307 31.7426 6.36519 31.7771L7.48889 33.2112C7.45439 33.2112 6.97879 33.2112 6.97879 33.2112C6.94429 33.2112 6.94429 33.2112 6.90979 33.1768L6.84079 33.1077L5.88713 31.9471C5.88713 31.9126 5.85263 31.9126 5.85263 31.9126L5.81813 31.8781C5.78363 31.8781 5.78363 31.8781 5.74913 31.846C5.7171 31.846 5.6826 31.846 5.6826 31.846H5.51256V33.2112H5V30.1728H5.47806V31.469H5.6481ZM8.30702 30.4118C8.30702 30.4463 8.30702 30.4808 8.27252 30.5154C8.27252 30.5474 8.23802 30.5819 8.20352 30.6164C8.17149 30.6509 8.13699 30.6509 8.10248 30.6854C8.06799 30.6854 8.03349 30.7199 7.99899 30.7199C7.96695 30.7199 7.93245 30.7199 7.89796 30.6854C7.86346 30.6854 7.82895 30.6509 7.79446 30.6164C7.76242 30.5819 7.76242 30.5474 7.72792 30.5154C7.72792 30.4808 7.69342 30.4463 7.69342 30.4118C7.69342 30.3774 7.69342 30.3429 7.72792 30.3108C7.72792 30.2763 7.76242 30.2418 7.79446 30.2073C7.82895 30.1728 7.86346 30.1728 7.89796 30.1383C7.93245 30.1383 7.96695 30.1038 7.99899 30.1038C8.03349 30.1038 8.06799 30.1038 8.10248 30.1383C8.13699 30.1383 8.17149 30.1728 8.20352 30.2073C8.23802 30.2418 8.23802 30.2763 8.27252 30.3108C8.30702 30.3108 8.30702 30.3429 8.30702 30.4118ZM7.79446 31.06H8.23802V33.2112H7.79446V31.06ZM10.6259 33.1743H10.3523C10.285 33.1743 10.2513 33.1406 10.2513 33.0732L10.2168 32.8342C10.1133 32.9352 10.0123 33.0387 9.90878 33.0732C9.80693 33.1406 9.67057 33.1743 9.49972 33.1743C9.36418 33.1743 9.26068 33.1398 9.15965 33.1052C9.05615 33.0732 8.98962 33.0043 8.92062 32.9007C8.85162 32.7997 8.78508 32.6962 8.75059 32.5606C8.71608 32.4226 8.68158 32.2526 8.68158 32.0826C8.68158 31.9126 8.71608 31.7746 8.75059 31.639C8.78508 31.5035 8.85162 31.4 8.92062 31.2965C8.98962 31.1955 9.09065 31.1265 9.22865 31.06C9.32969 30.9909 9.46522 30.9564 9.60322 30.9564C9.73875 30.9564 9.84225 30.9909 9.90878 31.0254C10.0123 31.06 10.0788 31.1265 10.1478 31.1955V30.0348H10.6259V33.1743ZM10.1823 31.57C10.1133 31.5035 10.0468 31.4345 9.97778 31.4C9.90878 31.3655 9.80774 31.3655 9.73875 31.3655C9.56789 31.3655 9.43154 31.4337 9.32969 31.57C9.22865 31.708 9.19415 31.8781 9.19415 32.1516C9.19415 32.2871 9.19415 32.3906 9.22865 32.4917C9.26068 32.5952 9.29518 32.6617 9.32969 32.7307C9.36418 32.7997 9.43318 32.8342 9.49972 32.8663C9.56871 32.9007 9.63771 32.9007 9.70425 32.9007C9.80774 32.9007 9.90878 32.8663 10.0123 32.8342C10.0788 32.7997 10.1823 32.6962 10.2513 32.6297V31.57H10.1823ZM11.614 31.331C11.6485 31.2989 11.7151 31.23 11.7496 31.1955C11.7841 31.1609 11.8531 31.1265 11.9196 31.092C11.9886 31.06 12.0231 31.06 12.0896 31.0254C12.1586 31.0254 12.2276 30.9909 12.2942 30.9909C12.3977 30.9909 12.4987 31.0254 12.6022 31.06C12.7032 31.092 12.7723 31.1609 12.8412 31.23C12.9078 31.2989 12.9423 31.4 12.9767 31.5035C13.0112 31.6046 13.0112 31.708 13.0112 31.8435V33.2088H12.5677V31.8435C12.5677 31.708 12.5332 31.57 12.4667 31.5035C12.3977 31.4345 12.2942 31.3655 12.1586 31.3655C12.0576 31.3655 11.9541 31.4 11.8851 31.4345C11.7841 31.469 11.7151 31.5355 11.6485 31.639V33.2088H11.205V31.06H11.444C11.5114 31.06 11.545 31.0936 11.545 31.1609L11.614 31.331ZM13.8639 32.1837H13.8663C13.8648 32.1738 13.8639 32.1623 13.8639 32.1492V32.1837ZM13.9329 32.4572C13.9674 32.5606 14.0019 32.6272 14.0684 32.6962C14.1374 32.7652 14.172 32.7997 14.273 32.8342C14.342 32.8663 14.443 32.8663 14.512 32.8663C14.6155 32.8663 14.682 32.8663 14.751 32.8342C14.82 32.7997 14.8866 32.7997 14.9211 32.7652C14.9555 32.7307 15.0246 32.7307 15.0566 32.6962C15.0911 32.6617 15.1256 32.6617 15.1601 32.6617C15.1946 32.6617 15.2291 32.6617 15.2291 32.6962L15.3646 32.8663C15.2956 32.9352 15.2612 32.9697 15.1946 33.0387C15.1256 33.0716 15.0574 33.1052 14.9901 33.1398C14.9211 33.1743 14.82 33.1743 14.751 33.2088C14.682 33.2088 14.581 33.2432 14.512 33.2432C14.3764 33.2432 14.2384 33.2088 14.1029 33.1743C13.9674 33.1398 13.8639 33.0387 13.7629 32.9697C13.6594 32.8663 13.5929 32.7652 13.5583 32.5952C13.4893 32.4572 13.4893 32.2871 13.4893 32.0826C13.4893 31.9471 13.5238 31.8091 13.5583 31.6735C13.5929 31.5355 13.6594 31.4345 13.7629 31.331C13.8639 31.23 13.9674 31.1609 14.0684 31.092C14.2064 31.0254 14.342 31.0254 14.512 31.0254C14.6475 31.0254 14.751 31.0575 14.8866 31.092C14.9901 31.1265 15.0927 31.1947 15.1946 31.2965C15.262 31.3655 15.3301 31.4682 15.3992 31.6046C15.4336 31.7401 15.4681 31.8781 15.4681 32.0136C15.4681 32.0826 15.4681 32.1171 15.4336 32.1516C15.4336 32.1836 15.3992 32.1837 15.3646 32.1837H13.8663C13.8713 32.3044 13.9009 32.3956 13.9329 32.4572ZM14.9555 31.8781C14.9555 31.8091 14.9555 31.7401 14.9211 31.6735C14.8866 31.6046 14.8521 31.5355 14.82 31.5035C14.7855 31.469 14.7166 31.4 14.6475 31.4C14.581 31.3655 14.512 31.3655 14.443 31.3655C14.273 31.3655 14.1374 31.4 14.0684 31.5035C13.9674 31.6046 13.8984 31.7401 13.8984 31.9126H14.9555V31.8781ZM17.649 31.0575L16.4563 33.7878C16.4563 33.8223 16.4218 33.8569 16.3873 33.8569C16.3528 33.8914 16.3183 33.8914 16.2863 33.8914H15.9437L16.3528 33.0363L15.4681 31.0575H15.8772C15.9092 31.0575 15.9437 31.0575 15.9782 31.092C16.0127 31.1265 16.0127 31.1265 16.0127 31.1609L16.5228 32.3881C16.5228 32.4226 16.5573 32.4572 16.5573 32.4917C16.5573 32.5262 16.5918 32.5606 16.5918 32.5927C16.5918 32.5606 16.6263 32.5262 16.6263 32.4917C16.6263 32.4572 16.6609 32.4226 16.6609 32.3881L17.1364 31.1609C17.1364 31.1265 17.1709 31.1265 17.1709 31.092C17.2055 31.092 17.2055 31.0575 17.2399 31.0575H17.649ZM21.0595 32.5262C21.0915 32.5262 21.0915 32.5262 21.1261 32.5606L21.3306 32.7652C21.195 32.9007 21.0595 33.0363 20.887 33.1052C20.717 33.1743 20.4779 33.2432 20.2389 33.2432C20.0024 33.2432 19.8298 33.2088 19.6253 33.1398C19.4553 33.0708 19.2852 32.9697 19.1842 32.8317C19.0462 32.6962 18.9452 32.5262 18.8761 32.3561C18.8088 32.1507 18.7752 31.9454 18.7752 31.7401C18.7752 31.5019 18.8088 31.2973 18.8761 31.1265C18.9452 30.922 19.0462 30.7864 19.1842 30.6484C19.3198 30.5129 19.4553 30.4094 19.6598 30.3429C19.8644 30.2738 20.0344 30.2393 20.2734 30.2393C20.4779 30.2393 20.6824 30.2738 20.855 30.3429C21.025 30.4094 21.1605 30.5129 21.2961 30.6139L21.1261 30.8529L21.0915 30.8875C21.0915 30.8875 21.0595 30.8875 21.025 30.8875C20.9905 30.8875 20.956 30.8875 20.9215 30.8529C20.887 30.8184 20.855 30.7864 20.786 30.7519C20.717 30.7174 20.6488 30.6829 20.5815 30.6484C20.5124 30.6139 20.3769 30.6139 20.2734 30.6139C20.1378 30.6139 20.0023 30.6484 19.8644 30.6829C19.7288 30.7174 19.6253 30.8184 19.5587 30.8875C19.4553 30.9909 19.3887 31.092 19.3543 31.23C19.3198 31.3655 19.2852 31.5355 19.2852 31.7055C19.2852 31.8781 19.3198 32.0481 19.3543 32.1837C19.3887 32.3217 19.4898 32.4572 19.5587 32.5262C19.6606 32.628 19.7625 32.6962 19.8644 32.7307C20.0023 32.7652 20.1034 32.7997 20.2389 32.7997C20.3079 32.7997 20.4114 32.7997 20.4779 32.7997C20.5469 32.7997 20.6159 32.7652 20.6504 32.7652C20.717 32.7307 20.7515 32.7307 20.8204 32.6962C20.855 32.6617 20.9215 32.6272 20.956 32.5927C20.9905 32.5262 21.025 32.5262 21.0595 32.5262ZM21.6041 31.331C21.8432 31.092 22.1487 30.9909 22.4567 30.9909C22.5923 30.9909 22.6958 31.023 22.7968 31.0575C22.9003 31.092 22.9668 31.1609 23.0358 31.23C23.1048 31.2965 23.1393 31.4 23.1713 31.501C23.2059 31.6046 23.2404 31.7055 23.2404 31.8435V33.2088H23.0358C23.0013 33.2088 22.9668 33.2088 22.9348 33.1743C22.9003 33.1743 22.9003 33.1398 22.8658 33.1052L22.8313 32.9352C22.7623 32.9697 22.7303 33.0363 22.6613 33.0708C22.5923 33.1052 22.5578 33.1398 22.4912 33.1743C22.4222 33.2088 22.3878 33.2088 22.3187 33.2432C22.2522 33.2432 22.1832 33.2753 22.1142 33.2753C22.0132 33.2753 21.9442 33.2753 21.8776 33.2432C21.8086 33.2088 21.7405 33.1743 21.6731 33.1398C21.6041 33.1052 21.5696 33.0363 21.5351 32.9697C21.5006 32.9007 21.5006 32.7997 21.5006 32.7307C21.5006 32.6617 21.5351 32.5606 21.5696 32.4917C21.6041 32.4226 21.6723 32.3545 21.7741 32.2871C21.8776 32.2181 22.0132 32.1837 22.1832 32.1171C22.3532 32.0826 22.5578 32.0481 22.7968 32.0481V31.9126C22.7968 31.7401 22.7623 31.639 22.6958 31.57C22.6267 31.5027 22.5241 31.469 22.3878 31.469C22.2867 31.469 22.2177 31.469 22.1832 31.501C22.1487 31.5355 22.0821 31.5355 22.0132 31.57C21.9787 31.6046 21.9442 31.6046 21.9096 31.639C21.8776 31.6735 21.8432 31.6735 21.8086 31.6735C21.7741 31.6735 21.7396 31.6735 21.7396 31.639C21.7051 31.639 21.7051 31.6046 21.6731 31.57L21.6041 31.331ZM22.8313 32.2526C22.6613 32.2526 22.5233 32.2871 22.4222 32.2871C22.3187 32.2871 22.2177 32.3217 22.1487 32.3537C22.0797 32.3881 22.0452 32.4227 22.0132 32.4572C21.9787 32.4917 21.9787 32.5606 21.9787 32.5927C21.9787 32.6272 21.9787 32.6962 22.0132 32.7307C22.0132 32.7652 22.0452 32.7972 22.0797 32.8317C22.1142 32.8663 22.1487 32.8663 22.1832 32.8663C22.2177 32.8663 22.2498 32.8663 22.3187 32.8663C22.4222 32.8663 22.5233 32.8317 22.6267 32.7972C22.6933 32.7652 22.7968 32.6962 22.8658 32.5927V32.2526H22.8313ZM24.2285 31.4345C24.295 31.2965 24.3641 31.1955 24.4676 31.1265C24.5686 31.0575 24.6721 31.023 24.8076 31.023C24.8421 31.023 24.9111 31.023 24.9431 31.023C24.9776 31.023 25.0122 31.0575 25.0467 31.0575L25.0122 31.4C25.0122 31.4345 25.0122 31.4345 24.9776 31.4345C24.9431 31.4345 24.9111 31.4345 24.8421 31.4345C24.8076 31.4345 24.7731 31.4345 24.7066 31.4345C24.6376 31.4345 24.6031 31.4345 24.5341 31.4666C24.4996 31.501 24.433 31.501 24.3985 31.5355C24.3641 31.57 24.3296 31.6046 24.295 31.6735C24.263 31.7055 24.2285 31.7746 24.2285 31.8435V33.1743H23.785V31.0575H24.0585C24.0905 31.0575 24.125 31.0575 24.1595 31.092C24.194 31.1265 24.194 31.1265 24.194 31.1955L24.2285 31.4345ZM25.5913 32.1837H25.5937C25.5921 32.1738 25.5913 32.1623 25.5913 32.1492V32.1837ZM25.6602 32.4572C25.6947 32.5606 25.7293 32.6272 25.7958 32.6962C25.8648 32.7652 25.8993 32.7997 26.0003 32.8342C26.0693 32.8663 26.1728 32.8663 26.2393 32.8663C26.3428 32.8663 26.4094 32.8663 26.4784 32.8342C26.5473 32.7997 26.6139 32.7997 26.6484 32.7652C26.6829 32.7307 26.7519 32.7307 26.7864 32.6962C26.8185 32.6617 26.853 32.6617 26.8874 32.6617C26.9219 32.6617 26.9564 32.6617 26.9564 32.6962L27.0919 32.8663C27.0255 32.9352 26.991 32.9697 26.9219 33.0387C26.853 33.0716 26.7847 33.1052 26.7174 33.1398C26.6484 33.1743 26.5473 33.1743 26.4784 33.2088C26.4094 33.2088 26.3084 33.2432 26.2393 33.2432C26.1038 33.2432 25.9683 33.2088 25.8303 33.1743C25.6947 33.1398 25.5913 33.0387 25.4902 32.9697C25.3867 32.9007 25.3202 32.7652 25.2857 32.5952C25.2167 32.4572 25.2167 32.2871 25.2167 32.0826C25.2167 31.9471 25.2512 31.8091 25.2857 31.6735C25.3202 31.5355 25.3867 31.4345 25.4902 31.331C25.5913 31.23 25.6947 31.1609 25.7958 31.092C25.9338 31.0254 26.0693 31.0254 26.2393 31.0254C26.3773 31.0254 26.4784 31.0575 26.6139 31.092C26.7174 31.1265 26.8201 31.1947 26.9219 31.2965C26.991 31.3655 27.0591 31.4682 27.1265 31.6046C27.161 31.7401 27.1955 31.8781 27.1955 32.0136C27.1955 32.0826 27.1955 32.1171 27.161 32.1516C27.161 32.1836 27.1265 32.1837 27.0919 32.1837H25.5937C25.5986 32.3044 25.6282 32.3956 25.6602 32.4572ZM26.6829 31.8781C26.6829 31.8091 26.6829 31.7401 26.6484 31.6735C26.6139 31.6046 26.5819 31.5355 26.5473 31.5035C26.5129 31.469 26.4439 31.4 26.3773 31.4C26.3084 31.3655 26.2393 31.3655 26.1728 31.3655C26.0003 31.3655 25.8648 31.4 25.7958 31.5035C25.7293 31.6046 25.6258 31.7401 25.6258 31.9126H26.6829V31.8781ZM41.7863 28.0906C41.4092 28.0906 41.1062 27.7849 41.1062 27.4079C41.1062 27.0284 41.4092 26.7253 41.7863 26.7253C42.1633 26.7253 42.4689 27.0284 42.4689 27.4079C42.4689 27.7849 42.1633 28.0906 41.7863 28.0906ZM42.3334 27.4252C42.3334 27.1122 42.0894 26.8609 41.7863 26.8609C41.4856 26.8609 41.2417 27.1122 41.2417 27.4252C41.2417 27.7357 41.4856 27.987 41.7863 27.987C42.0894 27.987 42.3334 27.7357 42.3334 27.4252ZM41.6508 27.817H41.5497V27.0309H41.8553C42.0253 27.0309 42.1288 27.0999 42.1288 27.2699C42.1288 27.4079 42.0253 27.4744 41.9243 27.4744L42.1288 27.817H41.9908L41.7863 27.4744H41.6508V27.817ZM41.7863 27.3734C41.8898 27.3734 41.9908 27.3734 41.9908 27.2379C41.9908 27.1689 41.8898 27.1344 41.8208 27.1344H41.6508V27.3734H41.7863Z" fill="#0069B1"/>
</g>
<rect x="18" width="48" height="48" rx="24" fill="#F2FBFF"/>
<g clip-path="url(#clip1_6899_728)">
<mask id="mask0_6899_728" style="mask-type:luminance" maskUnits="userSpaceOnUse" x="24" y="17" width="37" height="15">
<path d="M61 17H24V31.7897H61V17Z" fill="white"/>
</mask>
<g mask="url(#mask0_6899_728)">
<path d="M42.5 16.9995C32.2702 16.9995 24 20.315 24 24.3946C24 28.4742 32.2702 31.7896 42.5 31.7896C52.7298 31.7896 61 28.4742 61 24.3946C61 20.315 52.7298 16.9995 42.5 16.9995Z" fill="#273270"/>
<path d="M53.2105 26.4901H52.3847C52.3847 26.4901 53.075 24.5305 53.2845 23.8403C53.3214 23.717 53.3462 23.5814 53.3462 23.5198C53.3462 23.4705 53.3214 23.4212 53.2599 23.4212C53.1737 23.4212 52.964 23.5198 52.582 24.0621H52.3602C52.8163 23.3102 53.3832 22.8049 53.7775 22.8049C54.0364 22.8049 54.1472 22.9528 54.1472 23.187C54.1472 23.3472 54.0734 23.6553 53.9008 24.2716C54.6403 22.9282 55.1087 22.7433 55.4045 22.7557C55.7127 22.7557 55.8852 22.9652 55.8852 23.224C55.8852 23.4951 55.6757 23.8156 55.3553 23.8156C55.1457 23.8156 54.9977 23.6553 54.9977 23.3842C54.9977 23.3596 54.9977 23.3225 54.9977 23.298C54.7882 23.4089 54.2459 23.8895 53.5927 25.4795L53.2105 26.4901ZM43.5354 26.4901H42.7096C42.7096 26.4901 43.3998 24.5305 43.6093 23.8403C43.6463 23.717 43.671 23.5814 43.671 23.5198C43.671 23.4705 43.6463 23.4212 43.5846 23.4212C43.4984 23.4212 43.2889 23.5198 42.9068 24.0621H42.6849C43.1409 23.3102 43.7078 22.8049 44.1024 22.8049C44.3611 22.8049 44.4721 22.9528 44.4721 23.187C44.4721 23.3472 44.3981 23.6553 44.2256 24.2716C44.9652 22.9282 45.4335 22.7433 45.7292 22.7557C46.0373 22.7557 46.21 22.9652 46.21 23.224C46.21 23.4951 46.0004 23.8156 45.68 23.8156C45.4704 23.8156 45.3226 23.6553 45.3226 23.3842C45.3226 23.3596 45.3226 23.3225 45.3226 23.298C45.1131 23.4089 44.5707 23.8895 43.9174 25.4795L43.5354 26.4901ZM48.219 21.745C48.219 22.1024 47.9232 22.4475 47.5779 22.4475C47.3807 22.4475 47.233 22.3243 47.233 22.0654C47.233 21.708 47.5287 21.3629 47.8738 21.3629C48.071 21.3629 48.219 21.4861 48.219 21.745ZM47.0235 22.8172H47.8492L46.8631 25.5905C46.8507 25.6273 46.8015 25.7752 46.8015 25.8986C46.8015 25.9848 46.8385 26.0218 46.9001 26.0218C47.122 26.0218 47.5041 25.6644 47.7382 25.344H47.9602C47.5904 25.9602 46.9371 26.6011 46.3455 26.6011C46.0621 26.6011 45.8771 26.4285 45.8771 26.1574C45.8771 25.9971 45.9264 25.7382 46.0743 25.344L47.0235 22.8172ZM34.3901 21.5971C34.2668 21.5601 34.0944 21.5354 33.9218 21.5354C32.2702 21.5354 30.8405 23.1254 30.8405 24.74C30.8405 25.9232 31.5677 26.2313 32.1593 26.2313C32.8494 26.2313 33.3425 25.9602 33.7986 25.5535H34.045C33.6999 26.0341 32.9604 26.638 31.8881 26.638C30.4215 26.638 29.8545 25.7507 29.8545 24.7277C29.8545 22.8295 31.8758 21.2273 33.9958 21.2273C34.8215 21.2273 35.2899 21.5231 35.2899 21.9422C35.2899 22.2134 35.0927 22.4475 34.7599 22.4475C34.4888 22.4475 34.2792 22.2872 34.2792 21.9915C34.2792 21.8929 34.3285 21.7203 34.3901 21.5971ZM39.9241 26.4901H39.0983C39.0983 26.4901 39.7886 24.5305 39.9981 23.8403C40.0351 23.717 40.0598 23.5814 40.0598 23.5198C40.0598 23.4705 40.0351 23.4212 39.9734 23.4212C39.8872 23.4212 39.6776 23.5198 39.2956 24.0621H39.0737C39.5296 23.3102 40.0966 22.8049 40.491 22.8049C40.7499 22.8049 40.8609 22.9528 40.8609 23.187C40.8609 23.3472 40.7869 23.6553 40.6143 24.2716C41.3538 22.9282 41.8222 22.7433 42.118 22.7557C42.4261 22.7557 42.5987 22.9652 42.5987 23.224C42.5987 23.4951 42.3892 23.8156 42.0686 23.8156C41.8591 23.8156 41.7112 23.6553 41.7112 23.3842C41.7112 23.3596 41.7112 23.3225 41.7112 23.298C41.5017 23.4089 40.9595 23.8895 40.3061 25.4795L39.9241 26.4901ZM50.7579 22.9898C51.0413 22.9898 51.1524 23.1993 51.1524 23.4459C51.1524 23.8279 50.6715 24.7153 49.3898 24.74C49.5131 23.9881 50.1046 22.9898 50.7579 22.9898ZM49.9692 26.1697C49.5008 26.1697 49.2911 25.8245 49.2911 25.4425C49.2911 25.3069 49.3036 25.1097 49.3281 24.9988C51.1277 24.9372 51.9288 24.2963 51.9288 23.606C51.9288 23.1007 51.5097 22.7556 50.8565 22.7556C49.3774 22.7556 48.3669 24.1607 48.3669 25.3316C48.3669 26.1697 48.8721 26.6011 49.7103 26.6011C50.5113 26.6011 51.3001 25.9602 51.6454 25.4302H51.4358C51.1276 25.7382 50.61 26.1697 49.9692 26.1697ZM37.3974 23.8279C37.3974 23.8279 37.1263 24.4811 36.8553 24.9988C36.6333 25.4179 36.1404 26.0464 35.7829 26.0464C35.5241 26.0464 35.3884 25.8616 35.3884 25.5535C35.3884 24.5058 36.5101 23.0514 37.1387 23.0514C37.3482 23.0514 37.4714 23.2363 37.4714 23.4705C37.4714 23.5814 37.4468 23.6924 37.3974 23.8279ZM38.3836 25.344C38.2356 25.578 37.9028 25.9848 37.6686 25.9848C37.607 25.9848 37.57 25.9479 37.57 25.8739C37.57 25.7752 37.607 25.652 37.607 25.652L38.6053 22.8172H37.7672L37.6562 23.1254C37.5084 22.8912 37.3112 22.8049 37.0647 22.8049C36.091 22.8049 34.501 24.1977 34.501 25.6273C34.501 26.2436 34.8708 26.6011 35.3762 26.6011C35.8815 26.6011 36.3375 26.182 36.6703 25.6767H36.6949C36.6826 25.7629 36.658 25.8986 36.658 26.0218C36.658 26.3299 36.8182 26.564 37.1263 26.564C37.8165 26.564 38.4204 25.652 38.6177 25.344H38.3836ZM42.5001 30.5204C32.7386 30.5204 24.8259 27.7597 24.8259 24.3949C24.8259 21.0301 32.7386 18.2693 42.5001 18.2693C52.2615 18.2693 60.1742 21.0301 60.1742 24.3949C60.1742 27.7597 52.2615 30.5204 42.5001 30.5204ZM42.5001 17.8379C32.603 17.8379 24.5793 20.7836 24.5793 24.3949C24.5793 28.006 32.603 30.9518 42.5001 30.9518C52.3972 30.9518 60.4208 28.006 60.4208 24.3949C60.4208 20.7836 52.3972 17.8379 42.5001 17.8379Z" fill="white"/>
</g>
</g>
<rect x="34" width="48" height="48" rx="24" fill="#F0F2F5"/>
<g clip-path="url(#clip2_6899_728)">
<mask id="mask1_6899_728" style="mask-type:luminance" maskUnits="userSpaceOnUse" x="39" y="18" width="38" height="13">
<path d="M77 18H39V30.3641H77V18Z" fill="white"/>
</mask>
<g mask="url(#mask1_6899_728)">
<path d="M46.3824 26.0214L45.6066 24.5848L44.8015 26.0214M41.2141 29.2692L48.2649 29.273C48.0873 29.1516 47.8647 28.6767 47.8647 28.6767L41.2627 28.6794C40.5853 28.6316 40.4939 27.6047 41.3576 27.6278L47.2851 27.6314L46.9463 27.0185H41.1731C39.7521 27.0806 39.7023 29.1525 41.2141 29.2692ZM51.004 27.576L47.4223 21.1214C47.4141 21.4106 47.1436 21.8304 47.1436 21.8304L50.4652 27.8188C50.7517 28.4356 49.8944 29.0161 49.4961 28.2484L46.5623 22.9109L46.2071 23.5382L49.0602 28.7019C49.8035 29.9165 51.6347 28.9568 51.004 27.576ZM44.6562 19.6027L41.0347 26.1253C41.282 25.9995 41.7473 26.0375 41.7473 26.0375L45.1462 19.9337C45.5187 19.3652 46.4628 19.7905 46.0204 20.5336L42.94 26.0214H43.6381L46.6346 20.6666C47.2749 19.3945 45.4969 18.3391 44.6562 19.6027ZM51.985 27.3691C52.675 28.7767 51.5484 30.2908 50.3534 30.2962L40.9988 30.2971L40.9593 30.3003C39.3648 30.2908 38.6187 28.5168 39.192 27.4531L43.9653 18.8813C44.7579 17.6678 46.5799 17.7408 47.3117 18.8954L51.839 27.0961L51.985 27.3691Z" fill="#E12A27"/>
<path d="M62.5994 23.8311C62.5994 23.8311 64.4793 23.8288 64.4912 23.8288C65.2052 23.8359 65.328 24.3911 65.3219 24.7137C65.3118 25.2787 64.9576 25.4043 64.6169 25.4892C64.8611 25.8429 65.257 26.3306 65.5135 26.6745H64.4979L63.5039 25.0803C63.5039 25.0803 63.9872 25.0855 64.2179 25.0807C64.6084 25.0718 64.5975 24.4216 64.2084 24.4234L63.4381 24.421C63.4381 24.421 63.4318 26.6744 63.4381 26.6744C63.1519 26.6744 62.8856 26.6744 62.5995 26.6744C62.5994 26.0935 62.5994 23.8311 62.5994 23.8311ZM54.5249 28.1932H55.0001C55.5867 28.1932 55.967 28.431 55.967 28.9217C55.967 29.4614 55.6516 29.6691 55.0001 29.6804H54.5249M53.734 30.2845H55.1524C56.155 30.2845 56.7699 29.8088 56.7699 28.9254C56.7699 28.091 56.1642 27.5893 55.1524 27.5893H53.734V30.2845ZM57.0803 30.2904H59.6477V29.6841H57.8592V29.1686H59.4574V28.6232H57.8592V28.1496H59.6032V27.5851H57.0803M59.9737 30.301H60.7218V28.6079H60.731L61.929 30.301H62.8077V27.585H62.0823V29.2585H61.9931L60.8523 27.585H59.9735M72.1208 29.7382C71.5544 29.7382 71.337 29.3234 71.337 28.9087C71.337 28.4943 71.5544 28.0793 72.1208 28.0793C72.6877 28.0793 72.9051 28.4941 72.9051 28.9087C72.905 29.3234 72.6877 29.7382 72.1208 29.7382ZM70.4582 28.9086C70.4582 29.7185 71.0582 30.3641 72.1206 30.3641C73.1836 30.3641 73.7838 29.7185 73.7838 28.9086C73.7838 28.099 73.1836 27.4535 72.1206 27.4535C71.0583 27.4535 70.4582 28.099 70.4582 28.9086ZM63.3829 30.2893H64.1311V28.5967H64.1401L65.3381 30.2893H66.2169V27.5733H65.4915V29.2472H65.4022L64.2613 27.5733H63.3825M66.7739 30.3094H67.5843V27.5748H66.7739V30.3094ZM68.0005 30.2081C68.2708 30.2872 68.6235 30.3266 68.9067 30.3266C69.5819 30.3266 70.2444 30.1325 70.2444 29.4162C70.2444 28.4187 68.8067 28.7195 68.8067 28.2724C68.8067 28.031 69.1463 28.0149 69.3513 28.0149C69.582 28.0149 69.8174 28.0545 70.0265 28.1416L70.0787 27.5715C69.8742 27.5085 69.5866 27.469 69.2945 27.469C68.6846 27.469 67.9703 27.6511 67.9703 28.3158C67.9703 29.3213 69.4077 28.9967 69.4077 29.5115C69.4077 29.733 69.1641 29.7807 68.9067 29.7807C68.5712 29.7807 68.2792 29.7013 68.0704 29.5986M74.1662 30.2893H74.9141V28.5967H74.9231L76.1213 30.2893H76.9999V27.5733H76.2746V29.2472H76.1853L75.0444 27.5733H74.1659M55.3235 24.6076L55.333 24.5733L55.7143 25.4151H54.9667M53.6211 26.6501H54.4053L54.6935 26.0272H55.9864L56.276 26.6501H57.109L55.821 23.8242H54.9091L53.6211 26.6501ZM59.6494 23.8242H58.7897L58.027 25.7943L57.2071 23.8242H56.3475L57.575 26.6501H58.4378M68.5181 23.8242H67.5243L66.855 24.972L66.1862 23.8242H65.1922L66.417 25.5972V26.6501H67.2932V25.5972M59.7453 26.6745H62.3026V26.0397H60.5215V25.5002H62.1128V24.929H60.5215V24.433H62.2586V23.8418H59.7453" fill="black"/>
</g>
</g>
<rect x="55" width="48" height="48" rx="24" fill="#F0E6E6"/>
<g clip-path="url(#clip3_6899_728)">
<path d="M93.8128 19.1613C93.8532 19.1411 93.8532 19.2151 93.8128 19.1613C100.144 19.2151 99.8079 24.7728 99.3234 26.2665C98.6573 28.1303 96.9012 29.8461 93.3755 29.8259H64.8805C61.9267 29.7451 59.8947 28.1034 59.4305 26.206C58.6701 24.0798 59.4641 19.3699 64.6316 19.1613H66.4617H93.8128Z" fill="#00A651"/>
<path d="M93.8128 19.1613C93.8532 19.1411 93.8532 19.2151 93.8128 19.1613ZM93.8128 19.1613C100.144 19.2151 99.8079 24.7728 99.3234 26.2665C98.6573 28.1303 96.9012 29.8461 93.3755 29.8259H64.8805C61.9267 29.7451 59.8947 28.1034 59.4305 26.206C58.6701 24.0798 59.4641 19.3699 64.6316 19.1613H66.4617H93.8128Z" stroke="#009844" stroke-width="0.113104"/>
<path d="M76.9177 22.5929C77.5501 23.7367 77.1263 25.2035 76.3323 26.1388C75.4307 27.2827 73.7889 27.5047 72.5375 27.2086C71.7099 26.9529 71.3129 26.381 71.1648 25.7418C70.9832 24.4567 71.4609 23.2254 72.376 22.3238C73.1901 21.5433 74.408 21.3885 75.5249 21.5971C76.0497 21.7451 76.6014 22.0614 76.9177 22.5929Z" fill="white"/>
<path d="M67.5452 26.9529C67.1147 27.148 66.7782 27.2019 66.0045 27.2086H62.8757L64.0128 21.7585H67.3568C68.6487 21.7585 68.9986 22.7611 68.5882 23.5685C68.3796 23.9789 68.0297 24.1808 67.7404 24.3019C67.7337 24.3086 67.7471 24.2952 67.7404 24.2952C67.7337 24.3221 67.7538 24.3086 67.7404 24.2952C67.7337 24.3019 67.7337 24.3086 67.7404 24.2952C69.0121 24.82 68.642 26.455 67.5452 26.9529Z" fill="white"/>
<path d="M70.1826 27.2154H68.6553L69.8462 21.7922H71.3467L70.1826 27.2154Z" fill="white"/>
<path d="M83.5454 21.7588C86.2637 21.7184 85.5034 24.3223 83.9895 24.7395C83.9895 24.7462 83.9895 24.7529 83.9895 24.7395C84.8844 25.0153 84.8171 26.2735 84.7498 27.2222H82.9869C83.0004 26.9329 83.8213 24.9884 82.5698 25.0422H81.3452C81.3519 25.049 81.0425 26.4956 80.881 27.2222H79.394C79.4007 27.229 79.8381 25.049 79.8448 25.0422H78.2434L78.4789 23.9522H80.0736L80.5782 21.7655L83.5454 21.7588Z" fill="white"/>
<path d="M66.5828 22.7746C67.6325 22.7746 67.1817 23.8376 66.6232 23.8578C66.1993 23.8578 65.0353 23.8578 65.042 23.8646L65.2573 22.7678C65.2641 22.7813 66.5828 22.7746 66.5828 22.7746Z" fill="#00A651"/>
<path d="M75.3301 23.0505C75.8818 23.582 75.5185 24.7057 75.1484 25.3179C74.7446 25.9437 74.3073 26.0783 74.1122 26.1254C73.4999 26.2397 73.1096 26.0379 72.9414 25.7418C72.6454 25.2709 72.8405 23.8646 73.4663 23.2321C73.8969 22.7073 74.8254 22.5727 75.3301 23.0505Z" fill="#00A651"/>
<path d="M83.0341 22.7947C84.0569 22.8552 83.8483 23.9183 83.1082 23.952C83.1216 23.9722 81.5808 23.9452 81.5808 23.9587L81.8432 22.7947H83.0341Z" fill="#00A651"/>
<path d="M66.1524 24.8605C67.5317 24.8201 67.377 26.2062 66.2668 26.1254H64.551C64.5578 26.1187 64.8336 24.8605 64.8336 24.8605H66.1524Z" fill="#00A651"/>
<path d="M90.2605 27.202L91.4179 21.7856H94.2639C95.6366 21.8798 96.1479 22.7007 96.3161 23.4408C96.5449 24.6789 96.3296 27.1482 93.2076 27.202C93.1942 27.202 93.2076 27.1953 93.2076 27.202H90.2605Z" fill="white"/>
<path d="M90.5363 27.2021H89.0291C89.0291 27.2021 88.8206 26.287 88.8071 26.2735H86.358C86.3647 26.287 85.7928 27.2021 85.7928 27.2155H84.373L87.6431 21.7722C87.6431 21.7722 89.3656 21.7722 89.3723 21.7722L90.5363 27.2021Z" fill="white"/>
<path d="M93.6784 22.7881C95.3202 22.7881 95.2797 26.1725 92.8642 26.2061H91.9761L92.7027 22.7948C92.7027 22.7881 93.6784 22.7881 93.6784 22.7881Z" fill="#00A651"/>
<path d="M87.0107 25.2038L88.168 23.2256L88.5717 25.2038H87.0107Z" fill="#00A651"/>
</g>
<defs>
<clipPath id="clip0_6899_728">
<rect width="37.4812" height="19.94" fill="white" transform="translate(5 14)"/>
</clipPath>
<clipPath id="clip1_6899_728">
<rect width="37" height="14.8" fill="white" transform="translate(24 17)"/>
</clipPath>
<clipPath id="clip2_6899_728">
<rect width="38" height="12.388" fill="white" transform="translate(39 18)"/>
</clipPath>
<clipPath id="clip3_6899_728">
<rect width="40.7407" height="11" fill="white" transform="translate(59 19)"/>
</clipPath>
</defs>
</svg>
