<svg width="142" height="85" viewBox="0 0 142 85" fill="none" xmlns="http://www.w3.org/2000/svg">
<g clip-path="url(#clip0_6899_1137)">
<path d="M40.4249 30.9365C40.4249 32.6588 40.6115 34.0549 40.9371 35.0789C41.3505 36.2308 41.8481 37.3507 42.426 38.4295C42.6588 38.8018 42.7516 39.174 42.7516 39.5001C42.7516 39.9651 42.4727 40.4307 41.8677 40.8963L38.9359 42.8508C38.517 43.1302 38.0981 43.2697 37.7253 43.2697C37.2603 43.2697 36.7947 43.0369 36.3292 42.618C35.7016 41.9446 35.1406 41.2121 34.6541 40.4307C34.1886 39.6401 33.723 38.7551 33.2113 37.6851C29.5808 41.9663 25.0199 44.1071 19.5286 44.1075C15.6196 44.1075 12.5012 42.9902 10.2206 40.7568C7.94047 38.5223 6.7771 35.5439 6.7771 31.821C6.7771 27.8653 8.17326 24.6541 11.0122 22.234C13.8507 19.8139 17.6208 18.6039 22.4143 18.6039C23.9966 18.6039 25.6255 18.7433 27.3472 18.9761C29.0695 19.2089 30.8379 19.5811 32.6996 20V16.6027C32.6996 13.0654 31.9546 10.5992 30.5118 9.15636C29.0228 7.71353 26.5094 7.01518 22.926 7.01518C21.297 7.01518 19.622 7.20185 17.8997 7.62075C16.1774 8.03965 14.5024 8.55134 12.8734 9.20302C12.1289 9.52859 11.5706 9.71471 11.2445 9.80804C10.9184 9.90138 10.6861 9.94749 10.5 9.94749C9.84832 9.94749 9.52275 9.48193 9.52275 8.50467V6.22404C9.52275 5.47957 9.61608 4.92122 9.84832 4.59565C10.0811 4.26953 10.5 3.94396 11.1517 3.6184C12.7804 2.78023 14.735 2.08206 17.0152 1.52389C19.2964 0.918866 21.7165 0.639964 24.276 0.639964C29.8145 0.639964 33.8635 1.89612 36.4697 4.40953C39.0293 6.9224 40.3326 10.7386 40.3326 15.8582V30.9365H40.4249ZM21.5298 38.0106C23.066 38.0106 24.6482 37.7317 26.3233 37.1728C27.9989 36.6145 29.4884 35.5906 30.7446 34.1944C31.4896 33.3105 32.0479 32.3332 32.3268 31.216C32.6063 30.0993 32.7924 28.7492 32.7924 27.1669V25.2124C31.381 24.8692 29.9515 24.605 28.5106 24.4213C27.0596 24.2372 25.5986 24.1439 24.136 24.1418C21.0176 24.1418 18.7375 24.7469 17.2019 26.0036C15.6663 27.2603 14.9213 29.0287 14.9213 31.3554C14.9213 33.5427 15.4796 35.1716 16.643 36.2889C17.7602 37.4523 19.3892 38.0106 21.5298 38.0106ZM58.901 43.0369C58.0632 43.0369 57.5049 42.8975 57.1326 42.5713C56.7604 42.2924 56.4343 41.6408 56.1554 40.7568L45.2189 4.78177C44.9389 3.85063 44.7995 3.24561 44.7995 2.92004C44.7995 2.17557 45.1717 1.75612 45.9167 1.75612H50.4774C51.3613 1.75612 51.9669 1.89612 52.2925 2.22169C52.6647 2.50114 52.9442 3.15283 53.2231 4.03675L61.0417 34.8461L68.3019 4.03675C68.5347 3.10616 68.8141 2.50114 69.1858 2.22169C69.5586 1.94279 70.2103 1.75667 71.0481 1.75667H74.771C75.6549 1.75667 76.2605 1.89612 76.6322 2.22169C77.005 2.50114 77.3305 3.15283 77.5166 4.03675L84.8702 35.2183L92.921 4.03675C93.1999 3.10616 93.526 2.50114 93.8516 2.22169C94.2239 1.94279 94.8289 1.75667 95.6667 1.75667H99.9946C100.74 1.75667 101.159 2.12891 101.159 2.92004C101.159 3.15283 101.112 3.38561 101.065 3.66451C101.019 3.94342 100.926 4.3162 100.74 4.82843L89.5231 40.8029C89.2442 41.7341 88.9185 42.3391 88.5459 42.618C88.1737 42.8975 87.5686 43.0836 86.778 43.0836H82.7757C81.8912 43.0836 81.2862 42.9441 80.9134 42.618C80.5412 42.2924 80.2156 41.6874 80.0295 40.7568L72.8154 10.7386L65.6485 40.7096C65.4162 41.6408 65.1368 42.2458 64.7645 42.5713C64.3923 42.8975 63.7406 43.0369 62.9034 43.0369H58.901ZM118.704 44.2936C116.284 44.2936 113.864 44.0142 111.537 43.4558C109.21 42.8975 107.395 42.2919 106.185 41.5946C105.44 41.1752 104.928 40.7102 104.743 40.2913C104.562 39.8804 104.466 39.4368 104.463 38.9879V36.6145C104.463 35.6372 104.835 35.1717 105.534 35.1717C105.819 35.1727 106.102 35.22 106.371 35.3117C106.65 35.405 107.069 35.5906 107.535 35.7767C109.178 36.5001 110.894 37.0462 112.654 37.4056C114.477 37.7752 116.332 37.9623 118.192 37.964C121.124 37.964 123.405 37.4523 124.987 36.4284C126.569 35.4044 127.407 33.9155 127.407 32.0071C127.407 30.7043 126.988 29.6337 126.15 28.7492C125.313 27.8647 123.73 27.0742 121.45 26.3291L114.702 24.2352C111.304 23.1646 108.792 21.5823 107.255 19.4878C105.72 17.44 104.929 15.1599 104.929 12.7398C104.929 10.7853 105.348 9.06321 106.185 7.57353C107.023 6.08459 108.14 4.78177 109.536 3.75785C110.932 2.68726 112.514 1.89612 114.376 1.33777C116.237 0.779415 118.192 0.546631 120.24 0.546631C121.264 0.546631 122.334 0.593298 123.358 0.732749C124.429 0.8722 125.406 1.05832 126.383 1.24443C127.314 1.47722 128.198 1.71 129.036 1.98945C129.874 2.26836 130.525 2.54744 130.991 2.82671C131.642 3.19949 132.107 3.57173 132.387 3.99063C132.666 4.36287 132.806 4.87474 132.806 5.52624V7.71353C132.806 8.69079 132.433 9.20302 131.735 9.20302C131.363 9.20302 130.758 9.01636 129.967 8.64412C127.314 7.43408 124.335 6.82906 121.031 6.82906C118.379 6.82906 116.284 7.24796 114.841 8.13244C113.399 9.01636 112.654 10.3664 112.654 12.2742C112.654 13.5776 113.119 14.6943 114.05 15.5788C114.981 16.4633 116.703 17.3472 119.17 18.1383L125.778 20.2328C129.129 21.3034 131.549 22.7924 132.992 24.7002C134.435 26.608 135.133 28.7959 135.133 31.216C135.133 33.2171 134.714 35.0322 133.922 36.6145C133.085 38.1968 131.968 39.5929 130.525 40.7102C129.082 41.8735 127.36 42.7113 125.359 43.3164C123.265 43.968 121.077 44.2936 118.704 44.2936Z" fill="#252F3E"/>
<path d="M127.5 66.9116C112.189 78.2209 89.9425 84.2244 70.8152 84.2244C44.0082 84.2244 19.8546 74.3113 1.61126 57.8364C0.168435 56.5335 1.47126 54.7651 3.19298 55.7885C22.9258 67.2378 47.2661 74.1719 72.4441 74.1719C89.4308 74.1719 108.093 70.6351 125.266 63.3749C127.826 62.2109 130.013 65.0505 127.5 66.9116ZM133.876 59.6514C131.922 57.1386 120.938 58.4414 115.958 59.0464C114.469 59.2331 114.236 57.9297 115.586 56.9524C124.335 50.8089 138.716 52.5778 140.391 54.6251C142.067 56.7197 139.926 71.1001 131.735 77.9881C130.479 79.0587 129.269 78.5004 129.827 77.1042C131.688 72.4963 135.831 62.1182 133.876 59.6514Z" fill="#FF9900"/>
</g>
<defs>
<clipPath id="clip0_6899_1137">
<rect width="140.549" height="84" fill="white" transform="translate(0.680176 0.5)"/>
</clipPath>
</defs>
</svg>
