<svg width="141" height="99" viewBox="0 0 141 99" fill="none" xmlns="http://www.w3.org/2000/svg">
<g clip-path="url(#clip0_7058_4652)">
<path d="M58.7505 11.0278C63.2612 6.32799 69.5409 3.41315 76.4857 3.41315C85.7186 3.41315 93.7735 8.56143 98.0627 16.204C101.9 14.4899 106.056 13.6065 110.258 13.6118C126.91 13.6118 140.409 27.229 140.409 44.0263C140.409 60.8257 126.91 74.4435 110.258 74.4435C108.263 74.4445 106.274 74.2461 104.319 73.8512C100.541 80.5892 93.3431 85.1414 85.0809 85.1414C81.7397 85.1459 78.4416 84.3869 75.4384 82.9222C71.6092 91.9292 62.6875 98.2451 52.2892 98.2451C41.4611 98.2451 32.2331 91.3933 28.6905 81.7842C27.1428 82.1134 25.5388 82.2846 23.8933 82.2846C11.0013 82.2846 0.549375 71.7255 0.549375 58.6978C0.540197 54.5692 1.61312 50.5103 3.66123 46.9255C5.70933 43.3407 8.66111 40.3553 12.2224 38.2666C10.7441 34.8623 9.98304 31.1898 9.9868 27.4784C9.9868 12.4962 22.1498 0.351196 37.1528 0.351196C45.9608 0.351196 53.7882 4.53916 58.7505 11.0278Z" fill="#00A1E0"/>
<path d="M20.8067 51.1166C20.7192 51.3457 20.8384 51.3933 20.8669 51.4338C21.1294 51.6246 21.3962 51.7619 21.6653 51.915C23.0921 52.6724 24.4385 52.8939 25.8473 52.8939C28.7162 52.8939 30.4973 51.3681 30.4973 48.911V48.8635C30.4973 46.5923 28.487 45.767 26.6003 45.172L26.3553 45.0917C24.9329 44.6295 23.7057 44.2314 23.7057 43.2946V43.2454C23.7057 42.4442 24.4226 41.8542 25.5344 41.8542C26.7698 41.8542 28.236 42.2643 29.1805 42.7866C29.1805 42.7866 29.4572 42.966 29.5589 42.6969C29.6147 42.5536 30.0926 41.2668 30.143 41.1274C30.1965 40.9759 30.1008 40.8643 30.0035 40.8047C28.9256 40.1485 27.4354 39.7006 25.8932 39.7006L25.6061 39.7027C22.9805 39.7027 21.1474 41.2887 21.1474 43.562V43.6096C21.1474 46.0066 23.1698 46.7831 25.0641 47.3251L25.3693 47.4192C26.7496 47.843 27.9396 48.2077 27.9396 49.1801V49.2277C27.9396 50.1163 27.1663 50.7781 25.9189 50.7781C25.4349 50.7781 23.8911 50.7682 22.2231 49.7138C22.0219 49.5963 21.9043 49.511 21.749 49.4174C21.6669 49.3655 21.4624 49.2752 21.3727 49.5465L20.8067 51.1166ZM62.8067 51.1166C62.7192 51.3457 62.8384 51.3933 62.8669 51.4338C63.1294 51.6246 63.3962 51.7619 63.6653 51.915C65.0915 52.6724 66.4385 52.8939 67.8472 52.8939C70.7162 52.8939 72.4973 51.3681 72.4973 48.911V48.8635C72.4973 46.5923 70.487 45.767 68.6003 45.172L68.3553 45.0917C66.9329 44.6295 65.7051 44.2314 65.7051 43.2946V43.2454C65.7051 42.4442 66.4226 41.8542 67.5344 41.8542C68.7698 41.8542 70.236 42.2643 71.1805 42.7866C71.1805 42.7866 71.4572 42.966 71.5589 42.6969C71.6147 42.5536 72.0926 41.2668 72.1424 41.1274C72.1965 40.9759 72.1008 40.8643 72.0029 40.8047C70.9256 40.1485 69.4348 39.7006 67.8932 39.7006L67.6061 39.7027C64.98 39.7027 63.1474 41.2887 63.1474 43.562V43.6096C63.1474 46.0066 65.1692 46.7831 67.0641 47.3251L67.3687 47.4192C68.7496 47.843 69.9412 48.2077 69.9412 49.1801V49.2277C69.9412 50.1163 69.1658 50.7781 67.9189 50.7781C66.6101 50.7874 65.3265 50.4178 64.2231 49.7138C64.0219 49.5963 63.9021 49.5148 63.7512 49.4174C63.6992 49.3835 63.4558 49.2895 63.3722 49.5465L62.8067 51.1166ZM91.4788 46.3046C91.4788 47.6937 91.2196 48.7874 90.7099 49.5602C90.2057 50.3258 89.4428 50.6977 88.3786 50.6977C87.3127 50.6977 86.5536 50.3274 86.0576 49.5602C85.5556 48.7891 85.3008 47.6937 85.3008 46.3046C85.3008 44.9183 85.5556 43.8262 86.0576 43.0617C86.5536 42.3042 87.3127 41.9356 88.3786 41.9356C89.4428 41.9356 90.2051 42.3042 90.7115 43.0611C91.2201 43.8267 91.4788 44.9183 91.4788 46.3046ZM93.8736 43.7305C93.6384 42.9359 93.272 42.2348 92.7837 41.6507C92.2953 41.065 91.6779 40.5952 90.9445 40.2524C90.2133 39.9117 89.3487 39.7383 88.3786 39.7383C87.4062 39.7383 86.5416 39.9117 85.8104 40.2524C85.0776 40.5947 84.4597 41.065 83.9697 41.6507C83.4835 42.2364 83.1165 42.9381 82.8798 43.7305C82.6468 44.5218 82.5298 45.3864 82.5298 46.3046C82.5298 47.2234 82.6468 48.0902 82.8798 48.8788C83.1171 49.6717 83.4813 50.3728 83.9719 50.9591C84.472 51.5543 85.1006 52.0283 85.8104 52.3454C86.5433 52.6785 87.4062 52.8474 88.3786 52.8474C89.3487 52.8474 90.2117 52.6779 90.9445 52.3454C91.6545 52.0283 92.2834 51.5543 92.7837 50.9591C93.272 50.375 93.6384 49.6739 93.8736 48.8788C94.1087 48.088 94.2263 47.2217 94.2263 46.3046C94.2263 45.3886 94.1087 44.5218 93.8736 43.7305ZM113.539 50.3274C113.459 50.0945 113.234 50.182 113.234 50.182C112.886 50.3154 112.515 50.439 112.121 50.5008C111.686 50.5649 111.247 50.5962 110.808 50.5943C109.648 50.5943 108.727 50.2498 108.068 49.5684C107.407 48.887 107.036 47.7856 107.04 46.2948C107.044 44.9385 107.371 43.9181 107.958 43.141C108.542 42.3682 109.431 41.9717 110.616 41.9717C111.604 41.9717 112.357 42.0849 113.147 42.3343C113.147 42.3343 113.336 42.4163 113.425 42.1686C113.634 41.5873 113.79 41.1706 114.013 40.5313C114.077 40.3497 113.921 40.272 113.866 40.2502C113.555 40.1288 112.822 39.9313 112.268 39.8477C111.75 39.7684 111.144 39.7263 110.471 39.7263C109.464 39.7263 108.568 39.8974 107.801 40.2403C107.036 40.581 106.387 41.0513 105.873 41.637C105.358 42.2227 104.968 42.9238 104.707 43.7168C104.448 44.5076 104.317 45.3766 104.317 46.2948C104.317 48.281 104.853 49.8872 105.91 51.0624C106.97 52.242 108.563 52.8414 110.638 52.8414C111.865 52.8414 113.125 52.5926 114.029 52.236C114.029 52.236 114.203 52.1524 114.127 51.9511L113.539 50.3274ZM117.729 44.9746C117.843 44.2035 118.056 43.562 118.385 43.0622C118.881 42.3031 119.637 41.8864 120.702 41.8864C121.765 41.8864 122.469 42.3048 122.973 43.0622C123.307 43.562 123.453 44.2314 123.51 44.9746H117.729ZM125.792 43.2793C125.589 42.512 125.084 41.7371 124.754 41.3827C124.232 40.8206 123.722 40.4279 123.216 40.2092C122.481 39.897 121.691 39.737 120.892 39.7388C119.881 39.7388 118.962 39.9084 118.217 40.2584C117.47 40.6095 116.842 41.0874 116.35 41.6835C115.858 42.2769 115.488 42.9845 115.253 43.7874C115.015 44.5858 114.896 45.457 114.896 46.3752C114.896 47.3098 115.02 48.1799 115.265 48.963C115.511 49.7521 115.906 50.4478 116.44 51.0231C116.972 51.6027 117.657 52.0572 118.478 52.3738C119.293 52.6888 120.283 52.8524 121.42 52.8502C123.761 52.842 124.995 52.3202 125.503 52.0392C125.592 51.9899 125.678 51.9019 125.57 51.6509L125.041 50.1667C124.961 49.9452 124.736 50.0272 124.736 50.0272C124.156 50.2421 123.332 50.6288 121.409 50.6249C120.151 50.6227 119.219 50.252 118.636 49.6723C118.036 49.0789 117.743 48.2067 117.691 46.9751L125.798 46.9827C125.798 46.9827 126.011 46.9789 126.033 46.7717C126.041 46.6842 126.312 45.1059 125.792 43.2793ZM52.806 44.9746C52.9214 44.2035 53.1325 43.562 53.4617 43.0622C53.9577 42.3031 54.7146 41.8864 55.7783 41.8864C56.8425 41.8864 57.5458 42.3048 58.0516 43.0622C58.3847 43.562 58.5301 44.2314 58.5876 44.9746H52.806ZM60.8669 43.2793C60.6635 42.512 60.1615 41.7371 59.8306 41.3827C59.3089 40.8206 58.7987 40.4279 58.2928 40.2092C57.5582 39.897 56.7679 39.737 55.9697 39.7388C54.9596 39.7388 54.0392 39.9084 53.2944 40.2584C52.5468 40.6095 51.9195 41.0874 51.4273 41.6835C50.9351 42.2769 50.5649 42.9845 50.3297 43.7874C50.0946 44.5858 49.9732 45.457 49.9732 46.3752C49.9732 47.3098 50.0962 48.1799 50.3418 48.963C50.5884 49.7521 50.9833 50.4478 51.517 51.0231C52.0491 51.6027 52.7344 52.0572 53.5552 52.3738C54.3701 52.6888 55.3599 52.8524 56.4974 52.8502C58.8386 52.842 60.0718 52.3202 60.5798 52.0392C60.6695 51.9899 60.7548 51.9019 60.6476 51.6509L60.1199 50.1667C60.0379 49.9452 59.8131 50.0272 59.8131 50.0272C59.2334 50.2421 58.4104 50.6288 56.4837 50.6249C55.2287 50.6227 54.2962 50.252 53.7127 49.6723C53.1128 49.0789 52.8197 48.2067 52.7683 46.9751L60.8746 46.9827C60.8746 46.9827 61.0879 46.9789 61.1097 46.7717C61.118 46.6842 61.3887 45.1059 60.8669 43.2793ZM35.2836 50.2826C34.9664 50.0299 34.9226 49.966 34.8155 49.8024C34.6558 49.5536 34.5743 49.1987 34.5743 48.7486C34.5743 48.0355 34.8094 47.5236 35.2973 47.1791C35.2918 47.1807 35.9945 46.571 37.6488 46.5928C38.8098 46.6092 39.8478 46.7804 39.8478 46.7804V50.4663H39.85C39.85 50.4663 38.8197 50.6873 37.6603 50.7567C36.0104 50.8563 35.2776 50.281 35.2836 50.2826ZM38.509 44.5869C38.1804 44.5628 37.7544 44.5486 37.2441 44.5486C36.5485 44.5486 35.8769 44.6361 35.248 44.8056C34.6407 44.963 34.0669 45.2291 33.5544 45.591C33.0649 45.9401 32.6625 46.3975 32.3786 46.9275C32.092 47.4618 31.9465 48.0913 31.9465 48.7962C31.9465 49.5137 32.0696 50.1371 32.3168 50.6474C32.5578 51.1517 32.9217 51.5874 33.375 51.9145C33.8251 52.2431 34.3812 52.4843 35.0265 52.6298C35.662 52.7752 36.3828 52.8485 37.1719 52.8485C38.0032 52.8485 38.8317 52.7813 39.6345 52.6435C40.3178 52.5258 40.9986 52.3943 41.6765 52.2492C41.9456 52.1852 42.2448 52.1037 42.2448 52.1037C42.446 52.0539 42.4296 51.8385 42.4296 51.8385L42.4258 44.4256C42.4258 42.7997 41.9915 41.5944 41.1368 40.8474C40.2864 40.102 39.033 39.7257 37.4131 39.7257C36.8061 39.7257 35.8272 39.8094 35.242 39.927C35.242 39.927 33.4701 40.2693 32.7412 40.8392C32.7412 40.8392 32.582 40.9387 32.6695 41.1618L33.2437 42.704C33.3148 42.9031 33.5084 42.8353 33.5084 42.8353C33.5084 42.8353 33.5702 42.8117 33.6419 42.7696C35.2015 41.9209 37.1741 41.9471 37.1741 41.9471C38.0508 41.9471 38.724 42.1221 39.1784 42.471C39.6208 42.8095 39.8456 43.3214 39.8456 44.4015V44.7438C39.1483 44.6443 38.509 44.5869 38.509 44.5869ZM103.893 40.4093C103.905 40.3823 103.911 40.3532 103.911 40.3237C103.912 40.2942 103.906 40.265 103.894 40.2379C103.883 40.2107 103.866 40.1861 103.845 40.1656C103.824 40.145 103.799 40.129 103.771 40.1184C103.634 40.0648 102.945 39.9193 102.412 39.8854C101.395 39.8236 100.829 39.9948 100.323 40.2223C99.8208 40.4492 99.263 40.8156 98.9519 41.2324V40.2458C98.9519 40.1085 98.8545 39.9992 98.7189 39.9992H96.6408C96.5057 39.9992 96.4078 40.1085 96.4078 40.2458V52.3372C96.4078 52.4728 96.5194 52.5844 96.655 52.5844H98.7845C98.8168 52.5842 98.8488 52.5777 98.8786 52.5652C98.9084 52.5527 98.9355 52.5345 98.9582 52.5115C98.981 52.4886 98.999 52.4614 99.0112 52.4315C99.0234 52.4015 99.0297 52.3695 99.0295 52.3372V46.2964C99.0295 45.486 99.1192 44.6766 99.2986 44.1691C99.4736 43.6665 99.7131 43.2645 100.008 42.9752C100.29 42.698 100.633 42.4918 101.01 42.3737C101.387 42.2583 101.803 42.2206 102.098 42.2206C102.522 42.2206 102.988 42.3299 102.988 42.3299C103.144 42.348 103.232 42.2523 103.284 42.1112C103.423 41.7404 103.817 40.6302 103.893 40.4093" fill="white"/>
<path d="M83.9017 34.8054C83.6386 34.7261 83.3711 34.6622 83.1006 34.614C82.7365 34.5543 82.368 34.5265 81.9992 34.5308C80.5324 34.5308 79.3769 34.9448 78.5664 35.7619C77.7592 36.5745 77.2113 37.8121 76.9367 39.4396L76.8367 39.9876H74.9959C74.9959 39.9876 74.7727 39.9794 74.7252 40.2227L74.4244 41.9104C74.4025 42.0695 74.472 42.1712 74.6869 42.1712H76.4784L74.6612 52.3158C74.5201 53.1328 74.3566 53.8044 74.175 54.314C73.9978 54.8161 73.825 55.1929 73.6095 55.468C73.4017 55.7305 73.207 55.9262 72.868 56.0394C72.5891 56.1335 72.2664 56.1772 71.9137 56.1772C71.7184 56.1772 71.4576 56.145 71.2645 56.1056C71.1131 56.0761 70.9659 56.0283 70.8259 55.9634C70.8259 55.9634 70.617 55.8841 70.5334 56.0936C70.4677 56.2669 69.9892 57.5794 69.9318 57.7413C69.876 57.9026 69.9553 58.0279 70.057 58.0656C70.296 58.1493 70.4732 58.2051 70.7981 58.2827C71.2487 58.3888 71.6293 58.3943 71.9859 58.3943C72.7307 58.3943 73.4121 58.2887 73.9759 58.0858C74.542 57.8808 75.0358 57.5237 75.4744 57.0413C75.9463 56.5196 76.2433 55.9738 76.526 55.2268C76.8071 54.4896 77.0483 53.573 77.2391 52.5055L79.0663 42.1712H81.7361C81.7361 42.1712 81.9609 42.1789 82.0068 41.9339L82.3098 40.2484C82.3295 40.0871 82.2622 39.9876 82.0445 39.9876H79.4524C79.4666 39.9296 79.5842 39.0174 79.8811 38.1588C80.0085 37.794 80.2475 37.4971 80.4488 37.2942C80.6384 37.101 80.8714 36.9561 81.1285 36.8715C81.3856 36.7878 81.6781 36.7479 81.9992 36.7479C82.242 36.7479 82.4831 36.7758 82.6642 36.8135C82.9157 36.8676 83.0131 36.8955 83.0787 36.9152C83.3439 36.9951 83.3795 36.9174 83.4314 36.7894L84.051 35.0887C84.115 34.9054 83.9575 34.8272 83.9017 34.8054ZM47.6866 52.3382C47.6866 52.4733 47.5887 52.5832 47.4536 52.5832H45.3038C45.1682 52.5832 45.0725 52.4738 45.0725 52.3382V35.0367C45.0725 34.9016 45.1682 34.7917 45.3038 34.7917H47.4531C47.5887 34.7917 47.6866 34.9011 47.6866 35.0367V52.3382Z" fill="white"/>
</g>
<defs>
<clipPath id="clip0_7058_4652">
<rect width="140" height="98.4375" fill="white" transform="translate(0.479248 0.28125)"/>
</clipPath>
</defs>
</svg>
