<svg width="270" height="59" viewBox="0 0 270 59" fill="none" xmlns="http://www.w3.org/2000/svg">
<path d="M269.229 26.7704V22.0484H263.365V14.7076L263.168 14.7684L257.66 16.4535L257.552 16.4865V22.0487H248.859V18.9501C248.859 17.5073 249.181 16.4031 249.817 15.6668C250.448 14.9393 251.352 14.5694 252.503 14.5694C253.332 14.5694 254.189 14.7645 255.052 15.1491L255.268 15.2457V10.2729L255.166 10.2355C254.361 9.94613 253.267 9.80042 251.909 9.80042C250.199 9.80042 248.645 10.1726 247.29 10.9103C245.934 11.6489 244.867 12.7035 244.12 14.0442C243.375 15.3834 242.997 16.9301 242.997 18.6418V22.0484H238.914V26.7704H242.997V46.6632H248.859V26.7704H257.552V39.412C257.552 44.6183 260.007 47.2567 264.851 47.2567C265.647 47.2567 266.484 47.1635 267.34 46.9809C268.21 46.7933 268.803 46.6061 269.152 46.4061L269.229 46.3604V41.5948L268.991 41.7524C268.673 41.9644 268.277 42.1376 267.812 42.2664C267.346 42.3976 266.956 42.4633 266.654 42.4633C265.52 42.4633 264.68 42.1576 264.16 41.5542C263.633 40.9454 263.366 39.8808 263.366 38.3915V26.7704H269.229ZM225.825 42.4641C223.697 42.4641 222.02 41.7587 220.838 40.3691C219.648 38.9725 219.046 36.9814 219.046 34.4515C219.046 31.8415 219.648 29.7987 220.838 28.3774C222.021 26.9655 223.682 26.2489 225.777 26.2489C227.809 26.2489 229.427 26.9333 230.586 28.2842C231.751 29.642 232.342 31.6685 232.342 34.309C232.342 36.9819 231.786 39.0351 230.69 40.4086C229.601 41.7716 227.965 42.4641 225.825 42.4641ZM226.085 21.4555C222.026 21.4555 218.802 22.6448 216.504 24.9905C214.207 27.3364 213.042 30.5828 213.042 34.6404C213.042 38.4943 214.179 41.5942 216.421 43.8526C218.664 46.1118 221.716 47.2562 225.492 47.2562C229.426 47.2562 232.586 46.0502 234.883 43.6721C237.181 41.2966 238.345 38.0808 238.345 34.118C238.345 30.2038 237.252 27.0808 235.097 24.8375C232.941 22.5931 229.909 21.4555 226.085 21.4555ZM203.592 21.4555C200.831 21.4555 198.547 22.1617 196.802 23.5541C195.047 24.9549 194.157 26.792 194.157 29.015C194.157 30.1706 194.349 31.1971 194.727 32.0677C195.107 32.9412 195.696 33.7103 196.479 34.3557C197.255 34.996 198.453 35.6666 200.041 36.3489C201.376 36.8982 202.372 37.3629 203.004 37.7291C203.623 38.0881 204.061 38.4489 204.309 38.8003C204.55 39.1442 204.672 39.6148 204.672 40.1956C204.672 41.8493 203.433 42.654 200.885 42.654C199.94 42.654 198.862 42.4566 197.681 42.0675C196.508 41.6843 195.401 41.1231 194.399 40.4036L194.156 40.2291V45.8723L194.245 45.9139C195.075 46.2967 196.12 46.6196 197.353 46.8736C198.583 47.1279 199.701 47.2572 200.671 47.2572C203.667 47.2572 206.08 46.5476 207.841 45.1469C209.612 43.7365 210.51 41.8561 210.51 39.5561C210.51 37.8969 210.027 36.4741 209.074 35.3266C208.128 34.1884 206.486 33.1435 204.195 32.2199C202.37 31.4875 201.201 30.8794 200.719 30.4127C200.254 29.9618 200.018 29.3241 200.018 28.5166C200.018 27.8008 200.309 27.2273 200.907 26.7629C201.51 26.2961 202.349 26.0588 203.402 26.0588C204.378 26.0588 205.378 26.213 206.371 26.5154C207.364 26.8177 208.236 27.2226 208.964 27.7179L209.204 27.8816V22.5284L209.112 22.489C208.44 22.2009 207.555 21.9544 206.479 21.7544C205.408 21.5557 204.437 21.4555 203.592 21.4555ZM178.876 42.4641C176.749 42.4641 175.071 41.7587 173.889 40.3691C172.7 38.9725 172.098 36.9819 172.098 34.4515C172.098 31.8415 172.701 29.7987 173.891 28.3774C175.073 26.9655 176.734 26.2489 178.829 26.2489C180.861 26.2489 182.479 26.9333 183.638 28.2842C184.803 29.642 185.394 31.6685 185.394 34.309C185.394 36.9819 184.837 39.0351 183.741 40.4086C182.653 41.7716 181.017 42.4641 178.876 42.4641ZM179.137 21.4555C175.077 21.4555 171.853 22.6448 169.556 24.9905C167.259 27.3364 166.093 30.5828 166.093 34.6404C166.093 38.4959 167.231 41.5942 169.474 43.8526C171.716 46.1118 174.768 47.2562 178.544 47.2562C182.478 47.2562 185.638 46.0502 187.936 43.6721C190.232 41.2966 191.397 38.0808 191.397 34.118C191.397 30.2038 190.304 27.0808 188.149 24.8375C185.992 22.5931 182.96 21.4555 179.137 21.4555ZM157.196 26.3112V22.0484H151.406V46.6627H157.196V34.0716C157.196 31.9306 157.681 30.1716 158.639 28.8431C159.585 27.5304 160.845 26.8652 162.384 26.8652C162.906 26.8652 163.491 26.9512 164.125 27.1213C164.752 27.2904 165.207 27.474 165.475 27.6673L165.718 27.8436V22.0064L165.625 21.9661C165.085 21.737 164.323 21.6214 163.357 21.6214C161.902 21.6214 160.6 22.089 159.485 23.0095C158.506 23.8185 157.799 24.9279 157.258 26.3112H157.196ZM141.037 21.4555C138.381 21.4555 136.012 22.0251 133.996 23.1479C131.977 24.2733 130.415 25.8801 129.353 27.9231C128.295 29.9613 127.757 32.342 127.757 34.997C127.757 37.3227 128.278 39.4569 129.308 41.3379C130.337 43.222 131.795 44.696 133.64 45.7183C135.483 46.7393 137.612 47.257 139.97 47.257C142.722 47.257 145.071 46.7069 146.955 45.6219L147.031 45.5783V40.2738L146.787 40.4514C145.934 41.073 144.981 41.569 143.955 41.9264C142.931 42.2836 141.998 42.4641 141.18 42.4641C138.908 42.4641 137.085 41.7532 135.761 40.3517C134.434 38.9483 133.761 36.9777 133.761 34.498C133.761 32.0028 134.463 29.9815 135.845 28.4901C137.224 27.0031 139.051 26.2489 141.276 26.2489C143.179 26.2489 145.033 26.8933 146.788 28.166L147.031 28.3423V22.7531L146.952 22.709C146.292 22.3394 145.392 22.0342 144.274 21.8027C143.161 21.5718 142.072 21.4555 141.037 21.4555ZM123.77 22.0487H117.98V46.6627H123.77V22.0487ZM120.934 11.563C119.981 11.563 119.15 11.8874 118.467 12.5302C117.781 13.1749 117.434 13.9866 117.434 14.9445C117.434 15.8873 117.777 16.6842 118.456 17.3117C119.131 17.9374 119.965 18.2545 120.934 18.2545C121.903 18.2545 122.74 17.9374 123.423 17.3127C124.11 16.6842 124.459 15.8876 124.459 14.9445C124.459 14.0201 124.12 13.2167 123.451 12.5562C122.784 11.897 121.936 11.563 120.934 11.563ZM106.488 20.2326V46.6627H112.397V12.3165H104.218L93.8232 37.8278L83.7354 12.3165H75.2241V46.6624H80.777V20.23H80.9676L91.6201 46.6627H95.8107L106.297 20.2326H106.488Z" fill="#706D6E"/>
<path d="M27.9673 28.0767H0.729492V0.838867H27.9673V28.0767Z" fill="#F1511B"/>
<path d="M58.041 28.0767H30.8037V0.838867H58.041V28.0767Z" fill="#80CC28"/>
<path d="M27.9665 58.1614H0.729492V30.9238H27.9665V58.1614Z" fill="#00ADEF"/>
<path d="M58.041 58.1614H30.8037V30.9238H58.041V58.1614Z" fill="#FBBC09"/>
</svg>
