<svg width="216" height="41" viewBox="0 0 216 41" fill="none" xmlns="http://www.w3.org/2000/svg">
<g clip-path="url(#clip0_7177_2756)">
<path d="M62.8244 8.97232L62.8413 8.72232H63.0731V5.08806V4.91706L62.9137 4.85507C62.2434 4.59433 61.435 4.49402 60.5945 4.49402C57.3118 4.49402 54.739 5.9851 53.3834 8.59139V5.13684V4.88684H53.1334H49.064H48.814V5.13684V29.9887V30.2387H49.064H53.1334H53.3834V29.9887V17.2682C53.3834 14.3811 54.066 12.2769 55.3006 10.8963C56.531 9.52034 58.3443 8.82469 60.6921 8.82469C61.3338 8.82469 61.9379 8.86334 62.5731 8.94179V8.97232H62.8231H62.8244Z" fill="#1D2739" stroke="#1D2739" stroke-width="0.5"/>
<path d="M88.7469 30.24H88.9969V29.99V5.38816V5.13816V5.13687H88.7469V4.88816H84.6775H84.4275V5.13816V8.68614C82.7471 5.91824 79.4091 4.20007 75.6168 4.20007C68.719 4.20007 63.6899 9.78949 63.6899 17.5635C63.6899 25.3374 68.7189 30.9281 75.6168 30.9281C79.4091 30.9281 82.7471 29.21 84.4275 26.4421V29.99V30.24H84.6775H88.7469ZM82.3569 11.0474L82.3569 11.0474L82.3595 11.0503C83.8613 12.715 84.6213 14.9108 84.6213 17.5622C84.6213 20.2136 83.8613 22.4094 82.3595 24.074L82.3595 24.074L82.3569 24.077C80.9065 25.7369 78.9427 26.5949 76.5373 26.5949C74.1333 26.5949 72.168 25.7378 70.6675 24.0755C69.213 22.41 68.4532 20.213 68.4532 17.5622C68.4532 14.9114 69.213 12.7144 70.6675 11.0489C72.168 9.38651 74.1333 8.52946 76.5373 8.52946C78.9427 8.52946 80.9065 9.38742 82.3569 11.0474Z" fill="#1D2739" stroke="#1D2739" stroke-width="0.5"/>
<path d="M115.539 5.13684V4.88684H115.289H115.287H111.217H110.967V5.13684V19.2323C110.967 21.2267 110.196 22.8896 108.894 24.0562C107.59 25.2248 105.739 25.9081 103.562 25.9081C101.693 25.9081 100.371 25.4056 99.5084 24.3766C98.6373 23.3376 98.1922 21.7141 98.1922 19.3799V5.13684V4.88684H97.9422H93.8728H93.6228V5.13684V20.362C93.6228 23.5219 94.4453 25.9968 95.9964 27.6837C97.5503 29.3736 99.8041 30.2387 102.594 30.2387C106.29 30.2387 109.339 28.7694 110.969 26.091V27.5817C110.969 30.5659 110.251 32.7686 108.944 34.2233C107.64 35.6735 105.718 36.418 103.225 36.418C100.373 36.418 97.6253 35.4065 95.6899 33.635L95.4934 33.4552L95.3264 33.6626L92.9527 36.6101L92.8144 36.7819L92.9676 36.9405C95.304 39.3599 99.1557 40.75 103.322 40.75C107.152 40.75 110.217 39.6043 112.323 37.3625C114.426 35.1229 115.539 31.8243 115.539 27.583V5.13684Z" fill="#1D2739" stroke="#1D2739" stroke-width="0.5"/>
<path d="M141.782 30.24H142.032V29.99V29.9887V14.0755C142.032 10.9653 141.234 8.4909 139.696 6.79177C138.154 5.08895 135.9 4.19873 133.06 4.19873C129.378 4.19873 126.374 5.65907 124.784 8.32247V5.13681V4.88681H124.534H120.464H120.214V5.13681V29.99V30.24H120.464H124.534H124.784V29.99V15.2065C124.784 13.1857 125.544 11.5231 126.828 10.3635C128.113 9.20193 129.94 8.53069 132.092 8.53069C133.987 8.53069 135.307 9.03358 136.164 10.0616C137.029 11.1001 137.463 12.7233 137.463 15.0588V29.99V30.24H137.713H141.782Z" fill="#1D2739" stroke="#1D2739" stroke-width="0.5"/>
<path d="M170.949 30.24H171.199V29.99V5.38816V5.13816V5.13687H170.949V4.88816H166.879H166.629V5.13816V8.68614C164.949 5.91824 161.611 4.20007 157.818 4.20007C150.921 4.20007 145.892 9.78949 145.892 17.5635C145.892 25.3374 150.921 30.9281 157.818 30.9281C161.611 30.9281 164.949 29.21 166.629 26.4421V29.99V30.24H166.879H170.949ZM164.559 11.0474L164.559 11.0474L164.561 11.0503C166.063 12.715 166.823 14.9108 166.823 17.5622C166.823 20.2136 166.063 22.4094 164.561 24.074L164.561 24.074L164.559 24.077C163.108 25.7369 161.144 26.5949 158.739 26.5949C156.335 26.5949 154.37 25.7378 152.869 24.0755C151.415 22.41 150.655 20.213 150.655 17.5622C150.655 14.9114 151.415 12.7144 152.869 11.0489C154.37 9.38651 156.335 8.52946 158.739 8.52946C161.144 8.52946 163.108 9.38742 164.559 11.0474Z" fill="#1D2739" stroke="#1D2739" stroke-width="0.5"/>
<path d="M189.673 5.13684V4.88684H189.423H185.353H185.351H185.101V5.13684V20.7073C185.101 23.716 186.178 26.2765 188.079 28.084C189.98 29.8907 192.685 30.9281 195.913 30.9281C199.141 30.9281 201.847 29.8907 203.747 28.084C205.649 26.2765 206.726 23.716 206.726 20.7073V5.13684V4.88684H206.476H202.406H202.156V5.13684V20.4608C202.156 22.4762 201.578 24.0004 200.53 25.0217C199.482 26.044 197.929 26.5961 195.914 26.5961C193.9 26.5961 192.347 26.044 191.299 25.0217C190.251 24.0004 189.673 22.4762 189.673 20.4608V5.13684Z" fill="#1D2739" stroke="#1D2739" stroke-width="0.5"/>
<path d="M211.929 4.88684H211.679V5.13684V29.99V30.24H211.929H215.999H216.249V29.99V5.13684V4.88684H215.999H211.929Z" fill="#1D2739" stroke="#1D2739" stroke-width="0.5"/>
<path d="M30.858 21.9282L28.677 19.7471C28.6218 19.6919 28.641 19.5995 28.7116 19.5686C29.4819 19.2362 30.202 18.8074 30.858 18.3003C31.093 18.118 31.3189 17.9267 31.5358 17.7252C32.1687 17.1372 32.7246 16.4684 33.1867 15.7341C33.188 15.7316 33.1893 15.7303 33.1906 15.7277C33.4704 15.2822 33.7169 14.8124 33.9249 14.3233C34.4268 13.1423 34.7067 11.8444 34.7118 10.4811C34.7118 10.4811 34.7118 10.4798 34.7118 10.4785C34.7118 10.4657 34.7118 10.4528 34.7118 10.44C34.7118 9.07794 34.4384 7.78136 33.9429 6.59904C33.7773 6.20236 33.586 5.81853 33.3716 5.45009C33.3716 5.44753 33.369 5.44624 33.369 5.44496C32.4049 3.78894 30.9761 2.43844 29.2623 1.56935C29.2559 1.5655 29.2482 1.56165 29.2418 1.55908C27.9157 0.890256 25.6743 0.51027 24.0902 0.5C24.0683 0.5 24.7937 0.5 24.7718 0.5C24.75 0.5 24.7295 0.5 24.7076 0.5H3.77115C2.13567 0.5 0.80957 1.8261 0.80957 3.46158V24.5791C0.80957 25.2633 0.878892 25.9321 1.01112 26.5779C1.01112 26.5791 1.01112 26.5804 1.01112 26.583C1.25759 27.7871 1.72231 28.913 2.36161 29.9156C2.36161 29.9181 2.36418 29.9194 2.36546 29.922C3.4361 31.5998 4.99712 32.9349 6.84571 33.7244C6.85213 33.727 6.85854 33.7296 6.86496 33.7321C6.87909 33.7385 6.89449 33.745 6.90861 33.7514C7.85986 34.1506 8.88557 34.4048 9.96006 34.4895C10.2207 34.5101 10.4825 34.5203 10.7483 34.5203C12.1193 34.5203 13.4249 34.2431 14.6123 33.7411C15.4506 33.3868 16.2311 32.9208 16.9346 32.3611C16.9359 32.3611 16.9372 32.3598 16.9385 32.3585C16.9513 32.3483 16.9654 32.338 16.9783 32.3264C16.9821 32.3239 16.986 32.32 16.9898 32.3175C17.9 31.5819 18.6779 30.6897 19.2813 29.6807C20.1363 28.2519 20.6433 26.592 20.6844 24.8166V24.8127C20.6857 24.7357 20.687 24.6587 20.687 24.5816C20.687 24.5046 20.687 24.4276 20.6844 24.3506V20.801C20.6844 20.6483 20.8693 20.5712 20.9771 20.6791L29.9787 29.6807L32.0853 31.7873C33.0571 32.7591 34.7169 32.071 34.7169 30.6974V26.8937C34.7169 26.1902 34.4371 25.5149 33.939 25.0168L30.8529 21.9307L30.858 21.9282ZM24.768 14.3233H15.2863C14.9153 14.3233 14.6136 14.6237 14.6136 14.996V24.6625V24.6638C14.4917 27.3751 11.7637 29.1312 9.25914 28.0824C7.90608 27.5163 6.99077 26.2107 6.90861 24.7331V7.19213C6.90861 6.86863 7.17178 6.60546 7.49528 6.60546L15.6008 6.60032C15.6008 6.60032 15.6008 6.60289 15.5995 6.60418C17.3005 6.60418 19.0566 6.60418 20.687 6.60418C22.2095 6.60418 23.6229 6.60418 24.7782 6.60674C26.8695 6.60931 28.5948 8.35006 28.6025 10.4348C28.6102 12.5723 26.9144 14.2938 24.768 14.3246V14.3233Z" fill="#E8562E"/>
</g>
<defs>
<clipPath id="clip0_7177_2756">
<rect width="215.19" height="40" fill="white" transform="translate(0.80957 0.5)"/>
</clipPath>
</defs>
</svg>
