<svg width="186" height="49" viewBox="0 0 186 49" fill="none" xmlns="http://www.w3.org/2000/svg">
<path d="M66.4665 37.0905V16.2143H57.7427V12.5095H79.6379V16.2143H70.8855V37.0905H66.4665Z" fill="white"/>
<path d="M85.5237 37.5097C83.7332 37.5097 82.1523 37.1192 80.7809 36.3287C79.3999 35.5382 78.3237 34.4239 77.5428 32.9858C76.7618 31.5478 76.3618 29.8335 76.3618 27.862C76.3618 25.8906 76.7523 24.1858 77.5237 22.7382C78.2952 21.2906 79.3618 20.1763 80.7332 19.3954C82.1047 18.6144 83.6761 18.2144 85.4571 18.2144C86.4571 18.2144 87.4666 18.3668 88.4856 18.6716C89.5047 18.9763 90.438 19.5192 91.2856 20.3001C92.1332 21.0811 92.819 22.1573 93.3428 23.5287C93.8666 24.9001 94.1237 26.6335 94.1237 28.7382H79.0666V26.062H90.3618L89.7142 27.0335C89.6475 25.6525 89.4094 24.5478 89.0094 23.7097C88.6094 22.8716 88.0856 22.262 87.4571 21.8811C86.8285 21.5001 86.1237 21.3097 85.3523 21.3097C84.3713 21.3097 83.5523 21.5763 82.8761 22.1001C82.1999 22.6335 81.6951 23.3858 81.3523 24.3668C81.0094 25.3477 80.8285 26.5192 80.8285 27.8525C80.8285 29.8525 81.219 31.4239 82.0094 32.5573C82.7999 33.6906 83.9523 34.2525 85.4951 34.2525C86.5428 34.2525 87.438 33.9858 88.1713 33.4525C88.9047 32.9192 89.4666 32.1192 89.8285 31.062L93.7523 32.1573C93.3047 33.3478 92.6761 34.3382 91.857 35.1287C91.038 35.9192 90.0856 36.5001 88.9904 36.9001C87.8952 37.3001 86.7428 37.4906 85.5237 37.4906V37.5097Z" fill="white"/>
<path d="M104.562 37.5095C102.695 37.5095 101.086 37.1191 99.7332 36.3286C98.3808 35.5381 97.3332 34.4238 96.5999 32.9857C95.8665 31.5476 95.4951 29.8333 95.4951 27.8619C95.4951 25.8905 95.857 24.1667 96.5999 22.7286C97.3427 21.2905 98.3808 20.1667 99.7332 19.3952C101.086 18.6238 102.695 18.2238 104.543 18.2238C105.895 18.2238 107.143 18.4714 108.276 18.9571C109.409 19.4429 110.381 20.1667 111.181 21.1286C111.981 22.081 112.533 23.2524 112.857 24.6429L108.762 25.5667C108.486 24.2143 107.99 23.1857 107.267 22.4905C106.543 21.7952 105.628 21.4429 104.524 21.4429C103.019 21.4429 101.886 22.0238 101.124 23.1857C100.362 24.3476 99.9808 25.9191 99.9808 27.9095C99.9808 29.9 100.362 31.4619 101.114 32.6048C101.867 33.7381 103.009 34.3095 104.524 34.3095C105.6 34.3095 106.505 33.9857 107.238 33.3381C107.962 32.6905 108.486 31.7191 108.79 30.4333L112.781 31.2905C112.533 32.3381 112.143 33.2524 111.619 34.0333C111.095 34.8143 110.467 35.4619 109.733 35.9762C109 36.4905 108.19 36.881 107.314 37.1381C106.438 37.3952 105.514 37.5191 104.552 37.5191L104.562 37.5095Z" fill="white"/>
<path d="M114.743 37.0905V11.4905H118.962V22.9953L118.676 22.2239C119.2 21.0048 119.981 20.0334 121.019 19.3096C122.057 18.5858 123.324 18.2239 124.819 18.2239C126.2 18.2239 127.343 18.5382 128.266 19.1572C129.19 19.7763 129.886 20.6429 130.362 21.7667C130.838 22.8905 131.066 24.1953 131.066 25.7001V37.081H126.838V26.1572C126.838 24.6334 126.6 23.4715 126.133 22.681C125.657 21.8905 124.8 21.4905 123.552 21.4905C122.124 21.4905 121 22.0239 120.19 23.081C119.381 24.1382 118.981 25.7286 118.981 27.8429V37.081H114.762L114.743 37.0905Z" fill="white"/>
<path d="M144.076 37.5096C142.781 37.5096 141.581 37.1953 140.467 36.5763C139.362 35.9572 138.486 34.9382 137.848 33.5096L138.048 33.4239V37.0715H134.057V11.4905H138.286V22.4143L137.981 22.1382C138.562 20.7953 139.4 19.8048 140.505 19.1763C141.61 18.5477 142.819 18.2334 144.124 18.2334C145.657 18.2334 146.99 18.6239 148.124 19.3953C149.257 20.1667 150.133 21.281 150.762 22.7191C151.39 24.1572 151.705 25.8905 151.705 27.9096C151.705 29.9286 151.39 31.6143 150.762 33.0524C150.133 34.4905 149.248 35.5953 148.105 36.3667C146.962 37.1382 145.629 37.5191 144.076 37.5191V37.5096ZM142.657 34.2334C144.01 34.2334 145.105 33.6715 145.933 32.5477C146.762 31.4239 147.181 29.8429 147.181 27.8048C147.181 25.7667 146.781 24.2715 145.971 23.1667C145.162 22.062 144.067 21.5096 142.695 21.5096C141.857 21.5096 141.086 21.7382 140.381 22.1858C139.676 22.6334 139.124 23.3286 138.714 24.2715C138.305 25.2143 138.105 26.4048 138.105 27.8429C138.105 29.9858 138.543 31.5858 139.429 32.6429C140.314 33.7001 141.39 34.2334 142.667 34.2334H142.657Z" fill="white"/>
<path d="M162.447 37.5097C160.638 37.5097 159.038 37.1001 157.657 36.2906C156.276 35.4811 155.2 34.3477 154.428 32.8906C153.657 31.4335 153.276 29.7668 153.276 27.862C153.276 25.9573 153.657 24.2906 154.428 22.8335C155.2 21.3858 156.276 20.2525 157.657 19.4335C159.038 18.6239 160.638 18.2144 162.447 18.2144C164.257 18.2144 165.847 18.6239 167.228 19.4335C168.609 20.243 169.676 21.3763 170.457 22.8335C171.228 24.2811 171.619 25.9573 171.619 27.862C171.619 29.7668 171.228 31.4335 170.457 32.8906C169.685 34.3477 168.609 35.4716 167.219 36.2906C165.838 37.1001 164.247 37.5097 162.447 37.5097ZM162.447 34.3097C163.895 34.3097 165.038 33.7287 165.876 32.5763C166.714 31.4239 167.143 29.8525 167.143 27.8716C167.143 25.8906 166.723 24.3097 165.876 23.1573C165.038 22.0049 163.895 21.4335 162.447 21.4335C161 21.4335 159.847 22.0049 159.009 23.1573C158.171 24.3097 157.752 25.8811 157.752 27.8716C157.752 29.862 158.171 31.4144 159.009 32.5763C159.847 33.7287 160.99 34.3097 162.447 34.3097Z" fill="white"/>
<path d="M173.686 37.0905V18.6619H177.733V22.7286L177.581 22.2143C178.152 20.881 178.971 19.8905 180.038 19.2238C181.105 18.5667 182.247 18.2333 183.447 18.2333C183.79 18.2333 184.133 18.2619 184.476 18.3191C184.819 18.3762 185.152 18.4714 185.476 18.6048L185.105 22.3095C184.409 22.1095 183.733 22.0048 183.076 22.0048C182.59 22.0048 182.047 22.0905 181.447 22.2714C180.847 22.4524 180.286 22.7762 179.752 23.2524C179.219 23.7286 178.781 24.4143 178.428 25.3095C178.076 26.2048 177.905 27.3571 177.905 28.7857V37.1H173.686V37.0905Z" fill="white"/>
<path d="M24 0.5L0 24.5V0.5H24Z" fill="white"/>
<path d="M48 0.5V24.5L24 0.5H48Z" fill="white"/>
<path d="M48 24.4999V48.4999H24L48 24.4999Z" fill="white"/>
<path d="M24 24.4999V48.4999L0 24.4999H24Z" fill="white"/>
</svg>
