<svg width="186" height="48" viewBox="0 0 186 48" fill="none" xmlns="http://www.w3.org/2000/svg">
<path d="M66.4665 36.5907V15.7145H57.7427V12.0098H79.6379V15.7145H70.8855V36.5907H66.4665Z" fill="black"/>
<path d="M85.5237 37.0101C83.7332 37.0101 82.1523 36.6196 80.7809 35.8291C79.3999 35.0387 78.3237 33.9244 77.5428 32.4863C76.7618 31.0482 76.3618 29.3339 76.3618 27.3625C76.3618 25.391 76.7523 23.6863 77.5237 22.2387C78.2952 20.791 79.3618 19.6767 80.7332 18.8958C82.1047 18.1148 83.6761 17.7148 85.4571 17.7148C86.4571 17.7148 87.4666 17.8672 88.4856 18.172C89.5047 18.4767 90.438 19.0196 91.2856 19.8006C92.1332 20.5815 92.819 21.6577 93.3428 23.0291C93.8666 24.4006 94.1237 26.1339 94.1237 28.2387H79.0666V25.5625H90.3618L89.7142 26.5339C89.6475 25.1529 89.4094 24.0482 89.0094 23.2101C88.6094 22.372 88.0856 21.7625 87.4571 21.3815C86.8285 21.0006 86.1237 20.8101 85.3523 20.8101C84.3713 20.8101 83.5523 21.0767 82.8761 21.6006C82.1999 22.1339 81.6951 22.8863 81.3523 23.8672C81.0094 24.8482 80.8285 26.0196 80.8285 27.3529C80.8285 29.3529 81.219 30.9244 82.0094 32.0577C82.7999 33.191 83.9523 33.7529 85.4951 33.7529C86.5428 33.7529 87.438 33.4863 88.1713 32.9529C88.9047 32.4196 89.4666 31.6196 89.8285 30.5625L93.7523 31.6577C93.3047 32.8482 92.6761 33.8387 91.857 34.6291C91.038 35.4196 90.0856 36.0006 88.9904 36.4006C87.8952 36.8006 86.7428 36.991 85.5237 36.991V37.0101Z" fill="black"/>
<path d="M104.562 37.0098C102.695 37.0098 101.086 36.6194 99.7332 35.8289C98.3808 35.0384 97.3332 33.9241 96.5999 32.486C95.8665 31.0479 95.4951 29.3336 95.4951 27.3622C95.4951 25.3908 95.857 23.667 96.5999 22.2289C97.3427 20.7908 98.3808 19.667 99.7332 18.8955C101.086 18.1241 102.695 17.7241 104.543 17.7241C105.895 17.7241 107.143 17.9717 108.276 18.4575C109.409 18.9432 110.381 19.667 111.181 20.6289C111.981 21.5813 112.533 22.7527 112.857 24.1432L108.762 25.067C108.486 23.7146 107.99 22.686 107.267 21.9908C106.543 21.2955 105.628 20.9432 104.524 20.9432C103.019 20.9432 101.886 21.5241 101.124 22.686C100.362 23.8479 99.9808 25.4194 99.9808 27.4098C99.9808 29.4003 100.362 30.9622 101.114 32.1051C101.867 33.2384 103.009 33.8098 104.524 33.8098C105.6 33.8098 106.505 33.486 107.238 32.8384C107.962 32.1908 108.486 31.2194 108.79 29.9336L112.781 30.7908C112.533 31.8384 112.143 32.7527 111.619 33.5336C111.095 34.3146 110.467 34.9622 109.733 35.4765C109 35.9908 108.19 36.3813 107.314 36.6384C106.438 36.8956 105.514 37.0194 104.552 37.0194L104.562 37.0098Z" fill="black"/>
<path d="M114.743 36.5907V10.9907H118.962V22.4955L118.676 21.7241C119.2 20.505 119.981 19.5336 121.019 18.8098C122.057 18.086 123.324 17.7241 124.819 17.7241C126.2 17.7241 127.343 18.0383 128.266 18.6574C129.19 19.2764 129.886 20.1431 130.362 21.2669C130.838 22.3907 131.066 23.6955 131.066 25.2002V36.5812H126.838V25.6574C126.838 24.1336 126.6 22.9717 126.133 22.1812C125.657 21.3907 124.8 20.9907 123.552 20.9907C122.124 20.9907 121 21.5241 120.19 22.5812C119.381 23.6383 118.981 25.2288 118.981 27.3431V36.5812H114.762L114.743 36.5907Z" fill="black"/>
<path d="M144.076 37.0098C142.781 37.0098 141.581 36.6955 140.466 36.0764C139.362 35.4574 138.485 34.4383 137.847 33.0098L138.047 32.9241V36.5717H134.057V10.9907H138.285V21.9145L137.981 21.6383C138.562 20.2955 139.4 19.305 140.505 18.6764C141.609 18.0479 142.819 17.7336 144.124 17.7336C145.657 17.7336 146.99 18.1241 148.124 18.8955C149.257 19.6669 150.133 20.7812 150.762 22.2193C151.39 23.6574 151.705 25.3907 151.705 27.4098C151.705 29.4288 151.39 31.1145 150.762 32.5526C150.133 33.9907 149.247 35.0955 148.105 35.8669C146.962 36.6383 145.628 37.0193 144.076 37.0193V37.0098ZM142.657 33.7336C144.009 33.7336 145.105 33.1717 145.933 32.0479C146.762 30.9241 147.181 29.3431 147.181 27.305C147.181 25.2669 146.781 23.7717 145.971 22.6669C145.162 21.5621 144.066 21.0098 142.695 21.0098C141.857 21.0098 141.085 21.2383 140.381 21.686C139.676 22.1336 139.124 22.8288 138.714 23.7717C138.305 24.7145 138.105 25.905 138.105 27.3431C138.105 29.486 138.543 31.086 139.428 32.1431C140.314 33.2002 141.39 33.7336 142.666 33.7336H142.657Z" fill="black"/>
<path d="M162.448 37.0101C160.638 37.0101 159.038 36.6006 157.657 35.791C156.276 34.9815 155.2 33.8482 154.428 32.391C153.657 30.9339 153.276 29.2672 153.276 27.3625C153.276 25.4577 153.657 23.791 154.428 22.3339C155.2 20.8863 156.276 19.7529 157.657 18.9339C159.038 18.1244 160.638 17.7148 162.448 17.7148C164.257 17.7148 165.848 18.1244 167.228 18.9339C168.609 19.7434 169.676 20.8767 170.457 22.3339C171.228 23.7815 171.619 25.4577 171.619 27.3625C171.619 29.2672 171.228 30.9339 170.457 32.391C169.686 33.8482 168.609 34.972 167.219 35.791C165.838 36.6006 164.248 37.0101 162.448 37.0101ZM162.448 33.8101C163.895 33.8101 165.038 33.2291 165.876 32.0768C166.714 30.9244 167.143 29.3529 167.143 27.372C167.143 25.391 166.724 23.8101 165.876 22.6577C165.038 21.5053 163.895 20.9339 162.448 20.9339C161 20.9339 159.848 21.5053 159.009 22.6577C158.171 23.8101 157.752 25.3815 157.752 27.372C157.752 29.3625 158.171 30.9148 159.009 32.0768C159.848 33.2291 160.99 33.8101 162.448 33.8101Z" fill="black"/>
<path d="M173.686 36.5905V18.162H177.733V22.2286L177.581 21.7143C178.152 20.381 178.971 19.3905 180.038 18.7239C181.105 18.0667 182.247 17.7334 183.447 17.7334C183.79 17.7334 184.133 17.762 184.476 17.8191C184.819 17.8763 185.152 17.9715 185.476 18.1048L185.105 21.8096C184.409 21.6096 183.733 21.5048 183.076 21.5048C182.59 21.5048 182.047 21.5905 181.447 21.7715C180.847 21.9524 180.286 22.2763 179.752 22.7524C179.219 23.2286 178.781 23.9143 178.428 24.8096C178.076 25.7048 177.905 26.8572 177.905 28.2858V36.6001H173.686V36.5905Z" fill="black"/>
<path d="M24 0L0 24V0H24Z" fill="#010A11"/>
<path d="M47.9998 0V24L23.9998 0H47.9998Z" fill="#0080F4"/>
<path d="M47.9998 24V48H23.9998L47.9998 24Z" fill="#0080F4"/>
<path d="M24 24V48L0 24H24Z" fill="#0080F4"/>
</svg>
