<svg width="72" height="72" viewBox="0 0 72 72" fill="none" xmlns="http://www.w3.org/2000/svg">
<path d="M63.8059 45.3501L59.1745 40.7342C59.0573 40.6173 59.0982 40.4217 59.2481 40.3565C60.8837 39.6528 62.4129 38.7454 63.8059 37.6722C64.3047 37.2864 64.7845 36.8816 65.2451 36.4551C66.589 35.2107 67.7694 33.7953 68.7507 32.2412C68.7534 32.2358 68.7561 32.233 68.7589 32.2276C69.3531 31.2849 69.8765 30.2905 70.3181 29.2554C71.3839 26.7558 71.9782 24.0091 71.9891 21.1237C71.9891 21.1237 71.9891 21.121 71.9891 21.1183C71.9891 21.0911 71.9891 21.064 71.9891 21.0368C71.9891 18.1542 71.4085 15.4101 70.3563 12.9079C70.0046 12.0684 69.5984 11.256 69.1432 10.4763C69.1432 10.4709 69.1378 10.4681 69.1378 10.4654C67.0906 6.96064 64.0566 4.10249 60.4175 2.26316C60.4039 2.25501 60.3875 2.24686 60.3739 2.24142C57.558 0.825931 52.7985 0.021735 49.4347 0C49.3884 0 50.9286 0 50.8822 0C50.8359 0 50.7923 0 50.7459 0H6.28872C2.81589 0 0 2.80654 0 6.26784V50.9605C0 52.4086 0.1472 53.8241 0.427971 55.1907C0.427971 55.1934 0.427971 55.1961 0.427971 55.2015C0.95135 57.75 1.93814 60.1327 3.29565 62.2546C3.29565 62.26 3.3011 62.2627 3.30383 62.2681C5.57725 65.8191 8.89198 68.6447 12.8173 70.3155C12.831 70.321 12.8446 70.3264 12.8582 70.3318C12.8882 70.3454 12.9209 70.359 12.9509 70.3726C14.9708 71.2175 17.1488 71.7555 19.4304 71.9348C19.9838 71.9783 20.5399 72 21.1042 72C24.0154 72 26.7877 71.4132 29.3092 70.3509C31.0892 69.601 32.7466 68.6148 34.2404 67.4302C34.2431 67.4302 34.2459 67.4275 34.2486 67.4248C34.2758 67.403 34.3058 67.3813 34.3331 67.3569C34.3413 67.3514 34.3494 67.3433 34.3576 67.3378C36.2903 65.7811 37.9422 63.8928 39.2234 61.7574C41.0389 58.7335 42.1156 55.2206 42.2029 51.4631V51.455C42.2056 51.292 42.2083 51.1289 42.2083 50.9659C42.2083 50.8029 42.2083 50.6399 42.2029 50.4769V42.9647C42.2029 42.6414 42.5954 42.4784 42.8244 42.7066L61.9386 61.7574L66.4118 66.2158C68.4754 68.2724 72 66.8162 72 63.9091V55.859C72 54.3702 71.4057 52.9411 70.3481 51.8869L63.7949 45.3556L63.8059 45.3501ZM50.874 29.2554H30.7403C29.9525 29.2554 29.3119 29.8911 29.3119 30.679V51.1371V51.1398C29.053 56.8779 23.2604 60.5945 17.9421 58.3749C15.0689 57.1767 13.1254 54.4136 12.9509 51.2865V14.1631C12.9509 13.4784 13.5097 12.9215 14.1966 12.9215L31.4082 12.9106C31.4082 12.9106 31.4082 12.916 31.4054 12.9188C35.0173 12.9188 38.7464 12.9188 42.2083 12.9188C45.4413 12.9188 48.4425 12.9188 50.8958 12.9242C55.3364 12.9296 59 16.6137 59.0164 21.0259C59.0327 25.5495 55.4318 29.1929 50.874 29.2581V29.2554Z" fill="#E8562E"/>
</svg>
