<svg width="228" height="53" viewBox="0 0 228 53" fill="none" xmlns="http://www.w3.org/2000/svg">
<path d="M227.729 23.2656C227.729 10.0635 218.532 0.778076 205.638 0.778076C189.223 0.778076 178.222 12.7039 178.222 29.7346C178.222 43.0247 187.507 52.2221 200.621 52.2221C212.547 52.2221 221.436 46.4572 225.089 37.2598H211.843C210.083 40.1202 206.342 41.9245 201.765 41.9245C194.724 41.9245 190.324 37.2598 189.928 30.6587H226.981C227.465 28.1504 227.729 25.994 227.729 23.2656ZM190.94 21.7253C192.128 15.6524 198.025 10.8116 205.154 10.8116C211.315 10.8116 215.98 15.3003 215.98 21.7253H190.94Z" fill="#2E4369"/>
<path d="M142.621 51.034L144.997 38.36C152.258 39.8123 153.358 35.7196 155.251 25.8621L156.175 20.9773C158.815 7.20316 164.14 0.338083 179.366 2.18637L176.99 14.8604C169.729 13.4081 168.453 18.909 166.824 27.4463L165.9 32.3311C163.26 46.2813 157.759 52.8823 142.621 51.034Z" fill="#2E4369"/>
<path d="M124.843 51.0782L133.82 1.96655H145.658L136.725 51.0782H124.843Z" fill="#2E4369"/>
<path d="M57.0273 1.96655H68.5131L72.2537 37.4801L87.3041 1.96655H98.7019L102.706 37.8322L117.229 1.96655H128.671L107.855 51.0782H94.8293L90.6046 17.2809L76.2143 51.0782H63.6284L57.0273 1.96655Z" fill="#2E4369"/>
<path d="M14.1216 14.9922L0.479492 28.0183H23.6711L26.0915 22.3414H14.3417L21.6908 14.9922L17.4221 7.64307H37.3573L18.9624 51.0779H25.8715L46.6867 1.96619H6.46443L14.1216 14.9922Z" fill="#00B9FF"/>
</svg>
